<svg width="90" height="90" viewBox="0 0 90 90" fill="none" xmlns="http://www.w3.org/2000/svg">
<g opacity="0.7">
<path d="M43.6939 0.217954C42.5093 -0.332334 41.0781 0.197137 40.5284 1.38157C32.9503 17.4861 29.8747 34.3459 33.383 52.9618C33.7814 53.8772 34.7531 54.4543 35.6891 54.3533C35.9861 54.3326 36.2441 54.2669 36.5471 54.1622C37.7264 53.6145 38.2942 52.1781 37.7459 50.9985C34.9265 34.7501 38.1135 17.7641 44.898 3.42932C45.4087 2.19985 44.8786 0.768241 43.6939 0.217954Z" fill="#375FE9"/>
<path d="M43.6939 0.217954C42.5093 -0.332334 41.0781 0.197137 40.5284 1.38157C32.9503 17.4861 29.8747 34.3459 33.383 52.9618C33.7814 53.8772 34.7531 54.4543 35.6891 54.3533C35.9861 54.3326 36.2441 54.2669 36.5471 54.1622C37.7264 53.6145 38.2942 52.1781 37.7459 50.9985C34.9265 34.7501 38.1135 17.7641 44.898 3.42932C45.4087 2.19985 44.8786 0.768241 43.6939 0.217954Z" fill="url(#paint0_linear_26_2127)"/>
<path d="M45.8686 16.1675C42.8898 26.4635 41.7017 37.1004 42.3554 47.9554C42.4266 49.3115 43.581 50.2817 44.898 50.1661C46.254 50.0956 47.2236 48.9416 47.1074 47.6245C46.4953 37.3636 47.6082 27.1856 50.4606 17.4715C50.8484 16.1909 50.0992 14.87 48.8185 14.4816C47.5767 14.1383 46.2564 14.8869 45.8686 16.1675Z" fill="#375FE9"/>
<path d="M45.8686 16.1675C42.8898 26.4635 41.7017 37.1004 42.3554 47.9554C42.4266 49.3115 43.581 50.2817 44.898 50.1661C46.254 50.0956 47.2236 48.9416 47.1074 47.6245C46.4953 37.3636 47.6082 27.1856 50.4606 17.4715C50.8484 16.1909 50.0992 14.87 48.8185 14.4816C47.5767 14.1383 46.2564 14.8869 45.8686 16.1675Z" fill="url(#paint1_linear_26_2127)"/>
<path d="M63.9654 4.36235C62.6787 3.6351 61.0407 4.12497 60.3945 5.45417C56.8603 12.7232 51.2389 26.1862 52.5312 47.3423L52.5702 47.3873C52.6918 49.8025 51.7276 52.0545 49.7977 53.6455C47.9069 55.2815 45.4557 55.9058 43.0891 55.3543C41.8024 55.0499 40.521 55.8435 40.2562 57.1753C39.9525 58.462 40.7467 59.7439 42.0785 60.0093C43.2423 60.2625 44.4182 60.3478 45.5611 60.304C48.2341 60.1179 50.7995 59.0797 52.9545 57.2939C56.0098 54.7292 57.6319 50.9629 57.3672 47.0175C57.3672 47.0175 57.3282 46.9725 57.3732 46.9335C56.1829 27.0909 61.3816 14.5966 64.9649 7.93211C65.6475 6.66266 65.2202 5.07156 63.9654 4.36235Z" fill="#375FE9"/>
<path d="M63.9654 4.36235C62.6787 3.6351 61.0407 4.12497 60.3945 5.45417C56.8603 12.7232 51.2389 26.1862 52.5312 47.3423L52.5702 47.3873C52.6918 49.8025 51.7276 52.0545 49.7977 53.6455C47.9069 55.2815 45.4557 55.9058 43.0891 55.3543C41.8024 55.0499 40.521 55.8435 40.2562 57.1753C39.9525 58.462 40.7467 59.7439 42.0785 60.0093C43.2423 60.2625 44.4182 60.3478 45.5611 60.304C48.2341 60.1179 50.7995 59.0797 52.9545 57.2939C56.0098 54.7292 57.6319 50.9629 57.3672 47.0175C57.3672 47.0175 57.3282 46.9725 57.3732 46.9335C56.1829 27.0909 61.3816 14.5966 64.9649 7.93211C65.6475 6.66266 65.2202 5.07156 63.9654 4.36235Z" fill="url(#paint2_linear_26_2127)"/>
<path d="M31.9412 2.17544C30.6756 1.68143 29.2466 2.30592 28.7481 3.56977C26.7939 7.75807 25.636 12.0078 25.0149 16.8158C24.8409 18.1626 25.8019 19.3247 27.1182 19.448C28.4647 19.6226 29.6261 18.662 29.7488 17.3454C30.5185 13.0084 31.5483 10.403 33.364 5.23954C33.7988 4.00321 33.1621 2.65197 31.9412 2.17544Z" fill="#375FE9"/>
<path d="M31.9412 2.17544C30.6756 1.68143 29.2466 2.30592 28.7481 3.56977C26.7939 7.75807 25.636 12.0078 25.0149 16.8158C24.8409 18.1626 25.8019 19.3247 27.1182 19.448C28.4647 19.6226 29.6261 18.662 29.7488 17.3454C30.5185 13.0084 31.5483 10.403 33.364 5.23954C33.7988 4.00321 33.1621 2.65197 31.9412 2.17544Z" fill="url(#paint3_linear_26_2127)"/>
<path d="M11.6534 69.1154C10.6103 69.9162 10.3818 71.4241 11.1832 72.4677C12.9845 74.8579 15.045 77.0899 17.3275 79.0359C17.8156 79.4769 18.4821 79.6723 19.1586 79.6152C19.751 79.5548 20.3096 79.2823 20.7504 78.7943C21.6319 77.8184 21.5238 76.297 20.5475 75.4149C18.5511 73.6911 16.6927 71.6779 15.09 69.5907C14.2045 68.5437 12.6966 68.3145 11.6534 69.1154Z" fill="#375FE9"/>
<path d="M11.6534 69.1154C10.6103 69.9162 10.3818 71.4241 11.1832 72.4677C12.9845 74.8579 15.045 77.0899 17.3275 79.0359C17.8156 79.4769 18.4821 79.6723 19.1586 79.6152C19.751 79.5548 20.3096 79.2823 20.7504 78.7943C21.6319 77.8184 21.5238 76.297 20.5475 75.4149C18.5511 73.6911 16.6927 71.6779 15.09 69.5907C14.2045 68.5437 12.6966 68.3145 11.6534 69.1154Z" fill="url(#paint4_linear_26_2127)"/>
<path d="M77.6879 69.655C76.6403 68.8478 75.1235 69.0058 74.3167 70.0529C63.7468 83.4123 43.9685 88.1185 28.3087 80.8946C27.0911 80.3388 25.6981 80.8766 25.143 82.0939C24.5878 83.3112 25.1263 84.7044 26.3439 85.2602C43.8327 93.2433 66.1471 88.1221 78.1298 72.9845C78.8941 71.9792 78.7354 70.4623 77.6879 69.655Z" fill="#375FE9"/>
<path d="M77.6879 69.655C76.6403 68.8478 75.1235 69.0058 74.3167 70.0529C63.7468 83.4123 43.9685 88.1185 28.3087 80.8946C27.0911 80.3388 25.6981 80.8766 25.143 82.0939C24.5878 83.3112 25.1263 84.7044 26.3439 85.2602C43.8327 93.2433 66.1471 88.1221 78.1298 72.9845C78.8941 71.9792 78.7354 70.4623 77.6879 69.655Z" fill="url(#paint5_linear_26_2127)"/>
<path d="M6.94434 23.8918C5.86588 23.7848 4.84681 24.4197 4.52075 25.4533C1.14778 36.145 0.969834 50.4802 5.14635 62.2977C5.52191 63.284 6.41891 63.8741 7.39547 63.8802C7.69318 63.8784 7.95486 63.8292 8.1805 63.7326C9.42818 63.3082 10.086 61.9107 9.66112 60.6627C5.7069 49.6724 6.6515 37.722 9.04243 26.8154C9.3507 25.4091 8.37695 24.0339 6.94434 23.8918Z" fill="#375FE9"/>
<path d="M6.94434 23.8918C5.86588 23.7848 4.84681 24.4197 4.52075 25.4533C1.14778 36.145 0.969834 50.4802 5.14635 62.2977C5.52191 63.284 6.41891 63.8741 7.39547 63.8802C7.69318 63.8784 7.95486 63.8292 8.1805 63.7326C9.42818 63.3082 10.086 61.9107 9.66112 60.6627C5.7069 49.6724 6.6515 37.722 9.04243 26.8154C9.3507 25.4091 8.37695 24.0339 6.94434 23.8918Z" fill="url(#paint6_linear_26_2127)"/>
<path d="M83.5119 23.8918C84.5904 23.7848 85.6095 24.4197 85.9355 25.4533C89.3085 36.145 89.4864 50.4802 85.3099 62.2977C84.9344 63.284 84.0374 63.8741 83.0608 63.8802C82.7631 63.8784 82.5014 63.8292 82.2758 63.7326C81.0281 63.3082 80.3703 61.9107 80.7952 60.6627C84.7494 49.6724 83.8048 37.722 81.4138 26.8154C81.1056 25.4091 82.0793 24.0339 83.5119 23.8918Z" fill="#375FE9"/>
<path d="M83.5119 23.8918C84.5904 23.7848 85.6095 24.4197 85.9355 25.4533C89.3085 36.145 89.4864 50.4802 85.3099 62.2977C84.9344 63.284 84.0374 63.8741 83.0608 63.8802C82.7631 63.8784 82.5014 63.8292 82.2758 63.7326C81.0281 63.3082 80.3703 61.9107 80.7952 60.6627C84.7494 49.6724 83.8048 37.722 81.4138 26.8154C81.1056 25.4091 82.0793 24.0339 83.5119 23.8918Z" fill="url(#paint7_linear_26_2127)"/>
<path d="M73.0877 9.41495C71.9176 8.81462 70.4569 9.25312 69.8564 10.4239C69.0762 11.5121 67.973 14.139 67.7134 15.6902C67.5236 16.3201 67.632 17.0061 67.973 17.5932C68.281 18.1027 68.7663 18.4911 69.3959 18.6808C70.6551 19.0602 71.9841 18.3116 72.3638 17.0518C72.7135 15.8913 73.3196 13.9369 74.128 12.7246C74.9364 11.5122 74.2578 10.0153 73.0877 9.41495Z" fill="#375FE9"/>
<path d="M73.0877 9.41495C71.9176 8.81462 70.4569 9.25312 69.8564 10.4239C69.0762 11.5121 67.973 14.139 67.7134 15.6902C67.5236 16.3201 67.632 17.0061 67.973 17.5932C68.281 18.1027 68.7663 18.4911 69.3959 18.6808C70.6551 19.0602 71.9841 18.3116 72.3638 17.0518C72.7135 15.8913 73.3196 13.9369 74.128 12.7246C74.9364 11.5122 74.2578 10.0153 73.0877 9.41495Z" fill="url(#paint8_linear_26_2127)"/>
<path d="M18.8174 8.34806C17.5709 7.92898 16.192 8.58045 15.7728 9.82766C15.1637 11.0201 14.4646 14.5905 14.4393 16.163C14.3456 16.8142 14.5552 17.4763 14.9799 18.006C15.3605 18.4639 15.8982 18.7755 16.5491 18.8692C17.8508 19.0565 19.0532 18.1181 19.2408 16.8158C19.4135 15.616 19.9218 12.9017 20.3398 11.4655C20.7579 10.0293 20.064 8.76715 18.8174 8.34806Z" fill="#375FE9"/>
<path d="M18.8174 8.34806C17.5709 7.92898 16.192 8.58045 15.7728 9.82766C15.1637 11.0201 14.4646 14.5905 14.4393 16.163C14.3456 16.8142 14.5552 17.4763 14.9799 18.006C15.3605 18.4639 15.8982 18.7755 16.5491 18.8692C17.8508 19.0565 19.0532 18.1181 19.2408 16.8158C19.4135 15.616 19.9218 12.9017 20.3398 11.4655C20.7579 10.0293 20.064 8.76715 18.8174 8.34806Z" fill="url(#paint9_linear_26_2127)"/>
<path d="M54.4618 1.48281C53.2917 0.882481 51.831 1.32099 51.2305 2.49172C50.4504 3.57997 49.3471 6.20687 49.0875 7.75807C48.8977 8.38797 49.0062 9.07397 49.3471 9.66104C49.6552 10.1706 50.1405 10.559 50.7701 10.7487C52.0293 11.128 53.3582 10.3795 53.7379 9.11971C54.0877 7.95915 54.6938 6.0048 55.5022 4.79242C56.3105 3.58004 55.6319 2.08314 54.4618 1.48281Z" fill="#375FE9"/>
<path d="M54.4618 1.48281C53.2917 0.882481 51.831 1.32099 51.2305 2.49172C50.4504 3.57997 49.3471 6.20687 49.0875 7.75807C48.8977 8.38797 49.0062 9.07397 49.3471 9.66104C49.6552 10.1706 50.1405 10.559 50.7701 10.7487C52.0293 11.128 53.3582 10.3795 53.7379 9.11971C54.0877 7.95915 54.6938 6.0048 55.5022 4.79242C56.3105 3.58004 55.6319 2.08314 54.4618 1.48281Z" fill="url(#paint10_linear_26_2127)"/>
<path d="M82.4128 17.3721C82.4128 18.7113 81.3271 19.7969 79.9879 19.7969C78.6488 19.7969 77.5631 18.7113 77.5631 17.3721C77.5631 16.0329 78.6488 14.9473 79.9879 14.9473C81.3271 14.9473 82.4128 16.0329 82.4128 17.3721Z" fill="#375FE9"/>
<path d="M82.4128 17.3721C82.4128 18.7113 81.3271 19.7969 79.9879 19.7969C78.6488 19.7969 77.5631 18.7113 77.5631 17.3721C77.5631 16.0329 78.6488 14.9473 79.9879 14.9473C81.3271 14.9473 82.4128 16.0329 82.4128 17.3721Z" fill="url(#paint11_linear_26_2127)"/>
</g>
<path d="M13.0068 47.2953C13.0068 54.4044 15.7671 59.5422 19.7855 62.9486C26.7773 68.8757 37.5152 69.7582 45.7139 65.9285C45.3651 65.9482 45.0137 65.9582 44.66 65.9582C34.4322 65.9582 26.1409 57.6026 26.1409 47.2953L26.1409 24.6412C26.1409 23.1905 24.9649 22.0144 23.5141 22.0144C17.7111 22.0144 13.0068 26.7187 13.0068 32.5217V47.2953Z" fill="#EC3466"/>
<path d="M13.0068 47.2953C13.0068 54.4044 15.7671 59.5422 19.7855 62.9486C26.7773 68.8757 37.5152 69.7582 45.7139 65.9285C45.3651 65.9482 45.0137 65.9582 44.66 65.9582C34.4322 65.9582 26.1409 57.6026 26.1409 47.2953L26.1409 24.6412C26.1409 23.1905 24.9649 22.0144 23.5141 22.0144C17.7111 22.0144 13.0068 26.7187 13.0068 32.5217V47.2953Z" fill="#375FE9"/>
<path d="M13.0068 47.2953C13.0068 54.4044 15.7671 59.5422 19.7855 62.9486C26.7773 68.8757 37.5152 69.7582 45.7139 65.9285C45.3651 65.9482 45.0137 65.9582 44.66 65.9582C34.4322 65.9582 26.1409 57.6026 26.1409 47.2953L26.1409 24.6412C26.1409 23.1905 24.9649 22.0144 23.5141 22.0144C17.7111 22.0144 13.0068 26.7187 13.0068 32.5217V47.2953Z" fill="url(#paint12_linear_26_2127)"/>
<path d="M19.2795 66.3593C25.0508 74.1501 34.2711 79.1943 44.6604 79.1943C62.142 79.1943 76.3136 64.9127 76.3136 47.2953V24.6412C76.3136 23.1905 75.1375 22.0144 73.6868 22.0144C67.8838 22.0144 63.1795 26.7187 63.1795 32.5217V47.2953C63.1795 68.8114 35.2627 77.8552 19.2795 66.3593Z" fill="#19224D"/>
<path d="M19.2795 66.3593C25.0508 74.1501 34.2711 79.1943 44.6604 79.1943C62.142 79.1943 76.3136 64.9127 76.3136 47.2953V24.6412C76.3136 23.1905 75.1375 22.0144 73.6868 22.0144C67.8838 22.0144 63.1795 26.7187 63.1795 32.5217V47.2953C63.1795 68.8114 35.2627 77.8552 19.2795 66.3593Z" fill="#375FE9"/>
<path d="M19.2795 66.3593C25.0508 74.1501 34.2711 79.1943 44.6604 79.1943C62.142 79.1943 76.3136 64.9127 76.3136 47.2953V24.6412C76.3136 23.1905 75.1375 22.0144 73.6868 22.0144C67.8838 22.0144 63.1795 26.7187 63.1795 32.5217V47.2953C63.1795 68.8114 35.2627 77.8552 19.2795 66.3593Z" fill="url(#paint13_linear_26_2127)"/>
<defs>
<linearGradient id="paint0_linear_26_2127" x1="88.0558" y1="-3.46815e-05" x2="1.99998" y2="89.0577" gradientUnits="userSpaceOnUse">
<stop offset="0.131785" stop-color="#EC3466"/>
<stop offset="0.858386" stop-color="#EC3466" stop-opacity="0"/>
</linearGradient>
<linearGradient id="paint1_linear_26_2127" x1="88.0558" y1="-3.46815e-05" x2="1.99998" y2="89.0577" gradientUnits="userSpaceOnUse">
<stop offset="0.131785" stop-color="#EC3466"/>
<stop offset="0.858386" stop-color="#EC3466" stop-opacity="0"/>
</linearGradient>
<linearGradient id="paint2_linear_26_2127" x1="88.0558" y1="-3.46815e-05" x2="1.99998" y2="89.0577" gradientUnits="userSpaceOnUse">
<stop offset="0.131785" stop-color="#EC3466"/>
<stop offset="0.858386" stop-color="#EC3466" stop-opacity="0"/>
</linearGradient>
<linearGradient id="paint3_linear_26_2127" x1="88.0558" y1="-3.46815e-05" x2="1.99998" y2="89.0577" gradientUnits="userSpaceOnUse">
<stop offset="0.131785" stop-color="#EC3466"/>
<stop offset="0.858386" stop-color="#EC3466" stop-opacity="0"/>
</linearGradient>
<linearGradient id="paint4_linear_26_2127" x1="88.0558" y1="-3.46815e-05" x2="1.99998" y2="89.0577" gradientUnits="userSpaceOnUse">
<stop offset="0.131785" stop-color="#EC3466"/>
<stop offset="0.858386" stop-color="#EC3466" stop-opacity="0"/>
</linearGradient>
<linearGradient id="paint5_linear_26_2127" x1="88.0558" y1="-3.46815e-05" x2="1.99998" y2="89.0577" gradientUnits="userSpaceOnUse">
<stop offset="0.131785" stop-color="#EC3466"/>
<stop offset="0.858386" stop-color="#EC3466" stop-opacity="0"/>
</linearGradient>
<linearGradient id="paint6_linear_26_2127" x1="88.0558" y1="-3.46815e-05" x2="1.99998" y2="89.0577" gradientUnits="userSpaceOnUse">
<stop offset="0.131785" stop-color="#EC3466"/>
<stop offset="0.858386" stop-color="#EC3466" stop-opacity="0"/>
</linearGradient>
<linearGradient id="paint7_linear_26_2127" x1="88.0558" y1="-3.46815e-05" x2="1.99998" y2="89.0577" gradientUnits="userSpaceOnUse">
<stop offset="0.131785" stop-color="#EC3466"/>
<stop offset="0.858386" stop-color="#EC3466" stop-opacity="0"/>
</linearGradient>
<linearGradient id="paint8_linear_26_2127" x1="88.0558" y1="-3.46815e-05" x2="1.99998" y2="89.0577" gradientUnits="userSpaceOnUse">
<stop offset="0.131785" stop-color="#EC3466"/>
<stop offset="0.858386" stop-color="#EC3466" stop-opacity="0"/>
</linearGradient>
<linearGradient id="paint9_linear_26_2127" x1="88.0558" y1="-3.46815e-05" x2="1.99998" y2="89.0577" gradientUnits="userSpaceOnUse">
<stop offset="0.131785" stop-color="#EC3466"/>
<stop offset="0.858386" stop-color="#EC3466" stop-opacity="0"/>
</linearGradient>
<linearGradient id="paint10_linear_26_2127" x1="88.0558" y1="-3.46815e-05" x2="1.99998" y2="89.0577" gradientUnits="userSpaceOnUse">
<stop offset="0.131785" stop-color="#EC3466"/>
<stop offset="0.858386" stop-color="#EC3466" stop-opacity="0"/>
</linearGradient>
<linearGradient id="paint11_linear_26_2127" x1="88.0558" y1="-3.46815e-05" x2="1.99998" y2="89.0577" gradientUnits="userSpaceOnUse">
<stop offset="0.131785" stop-color="#EC3466"/>
<stop offset="0.858386" stop-color="#EC3466" stop-opacity="0"/>
</linearGradient>
<linearGradient id="paint12_linear_26_2127" x1="45.5624" y1="22.0144" x2="9.33128" y2="51.2742" gradientUnits="userSpaceOnUse">
<stop stop-color="#EC3466" stop-opacity="0"/>
<stop offset="1" stop-color="#EC3466"/>
</linearGradient>
<linearGradient id="paint13_linear_26_2127" x1="76.0494" y1="22.0144" x2="30.5891" y2="73.7707" gradientUnits="userSpaceOnUse">
<stop stop-color="#EC3466"/>
<stop offset="1" stop-color="#EC3466" stop-opacity="0"/>
</linearGradient>
</defs>
</svg>
