<svg width="510" height="90" viewBox="0 0 510 90" fill="none" xmlns="http://www.w3.org/2000/svg">
<path d="M143.937 22.0742H153.163V50.4123C153.163 53.5941 152.403 56.3782 150.883 58.7646C149.377 61.1509 147.268 63.0117 144.555 64.3469C141.842 65.668 138.681 66.3285 135.073 66.3285C131.451 66.3285 128.284 65.668 125.571 64.3469C122.858 63.0117 120.748 61.1509 119.243 58.7646C117.737 56.3782 116.984 53.5941 116.984 50.4123V22.0742H126.21V49.6239C126.21 51.2859 126.572 52.7631 127.297 54.0558C128.035 55.3484 129.072 56.364 130.407 57.1026C131.743 57.8413 133.298 58.2106 135.073 58.2106C136.863 58.2106 138.419 57.8413 139.74 57.1026C141.075 56.364 142.105 55.3484 142.829 54.0558C143.568 52.7631 143.937 51.2859 143.937 49.6239V22.0742Z" fill="white"/>
<path d="M143.937 22.0742H153.163V50.4123C153.163 53.5941 152.403 56.3782 150.883 58.7646C149.377 61.1509 147.268 63.0117 144.555 64.3469C141.842 65.668 138.681 66.3285 135.073 66.3285C131.451 66.3285 128.284 65.668 125.571 64.3469C122.858 63.0117 120.748 61.1509 119.243 58.7646C117.737 56.3782 116.984 53.5941 116.984 50.4123V22.0742H126.21V49.6239C126.21 51.2859 126.572 52.7631 127.297 54.0558C128.035 55.3484 129.072 56.364 130.407 57.1026C131.743 57.8413 133.298 58.2106 135.073 58.2106C136.863 58.2106 138.419 57.8413 139.74 57.1026C141.075 56.364 142.105 55.3484 142.829 54.0558C143.568 52.7631 143.937 51.2859 143.937 49.6239V22.0742Z" fill="white"/>
<path d="M169.66 46.7901V65.7107H160.583V32.9833H169.234V38.7575H169.617C170.342 36.854 171.556 35.3484 173.261 34.2404C174.965 33.1183 177.032 32.5573 179.461 32.5573C181.734 32.5573 183.715 33.0543 185.406 34.0487C187.096 35.043 188.41 36.4635 189.347 38.3101C190.285 40.1425 190.754 42.33 190.754 44.8726V65.7107H181.677V46.4918C181.691 44.489 181.18 42.9265 180.143 41.8043C179.106 40.668 177.678 40.0998 175.86 40.0998C174.638 40.0998 173.559 40.3626 172.621 40.8881C171.698 41.4137 170.974 42.1809 170.448 43.1894C169.937 44.1837 169.674 45.3839 169.66 46.7901Z" fill="white"/>
<path d="M169.66 46.7901V65.7107H160.583V32.9833H169.234V38.7575H169.617C170.342 36.854 171.556 35.3484 173.261 34.2404C174.965 33.1183 177.032 32.5573 179.461 32.5573C181.734 32.5573 183.715 33.0543 185.406 34.0487C187.096 35.043 188.41 36.4635 189.347 38.3101C190.285 40.1425 190.754 42.33 190.754 44.8726V65.7107H181.677V46.4918C181.691 44.489 181.18 42.9265 180.143 41.8043C179.106 40.668 177.678 40.0998 175.86 40.0998C174.638 40.0998 173.559 40.3626 172.621 40.8881C171.698 41.4137 170.974 42.1809 170.448 43.1894C169.937 44.1837 169.674 45.3839 169.66 46.7901Z" fill="white"/>
<path d="M209.967 66.2433C207.481 66.2433 205.23 65.604 203.213 64.3256C201.21 63.033 199.619 61.1367 198.44 58.6367C197.275 56.1225 196.693 53.0401 196.693 49.3896C196.693 45.6396 197.297 42.5217 198.504 40.0359C199.711 37.5359 201.316 35.668 203.319 34.4322C205.336 33.1822 207.545 32.5572 209.946 32.5572C211.778 32.5572 213.305 32.8697 214.527 33.4947C215.762 34.1055 216.757 34.8725 217.51 35.7958C218.277 36.7049 218.859 37.5998 219.257 38.4805H219.534V22.0742H228.589V65.7106H219.64V60.4691H219.257C218.831 61.3782 218.227 62.2802 217.446 63.1751C216.679 64.0558 215.677 64.7873 214.441 65.3697C213.22 65.9521 211.728 66.2433 209.967 66.2433ZM212.843 59.0202C214.306 59.0202 215.542 58.6225 216.551 57.8271C217.574 57.0174 218.355 55.8881 218.895 54.4393C219.449 52.9904 219.725 51.293 219.725 49.3469C219.725 47.4009 219.456 45.7106 218.916 44.2759C218.376 42.8413 217.595 41.7333 216.572 40.9521C215.549 40.1708 214.306 39.7802 212.843 39.7802C211.352 39.7802 210.095 40.185 209.072 40.9947C208.049 41.8043 207.275 42.9265 206.75 44.3611C206.224 45.7958 205.961 47.4577 205.961 49.3469C205.961 51.2504 206.224 52.9336 206.75 54.3967C207.289 55.8455 208.064 56.9819 209.072 57.8058C210.095 58.6154 211.352 59.0202 212.843 59.0202Z" fill="white"/>
<path d="M209.967 66.2433C207.481 66.2433 205.23 65.604 203.213 64.3256C201.21 63.033 199.619 61.1367 198.44 58.6367C197.275 56.1225 196.693 53.0401 196.693 49.3896C196.693 45.6396 197.297 42.5217 198.504 40.0359C199.711 37.5359 201.316 35.668 203.319 34.4322C205.336 33.1822 207.545 32.5572 209.946 32.5572C211.778 32.5572 213.305 32.8697 214.527 33.4947C215.762 34.1055 216.757 34.8725 217.51 35.7958C218.277 36.7049 218.859 37.5998 219.257 38.4805H219.534V22.0742H228.589V65.7106H219.64V60.4691H219.257C218.831 61.3782 218.227 62.2802 217.446 63.1751C216.679 64.0558 215.677 64.7873 214.441 65.3697C213.22 65.9521 211.728 66.2433 209.967 66.2433ZM212.843 59.0202C214.306 59.0202 215.542 58.6225 216.551 57.8271C217.574 57.0174 218.355 55.8881 218.895 54.4393C219.449 52.9904 219.725 51.293 219.725 49.3469C219.725 47.4009 219.456 45.7106 218.916 44.2759C218.376 42.8413 217.595 41.7333 216.572 40.9521C215.549 40.1708 214.306 39.7802 212.843 39.7802C211.352 39.7802 210.095 40.185 209.072 40.9947C208.049 41.8043 207.275 42.9265 206.75 44.3611C206.224 45.7958 205.961 47.4577 205.961 49.3469C205.961 51.2504 206.224 52.9336 206.75 54.3967C207.289 55.8455 208.064 56.9819 209.072 57.8058C210.095 58.6154 211.352 59.0202 212.843 59.0202Z" fill="white"/>
<path d="M250.967 66.3498C247.6 66.3498 244.702 65.668 242.273 64.3043C239.859 62.9265 237.998 60.9806 236.691 58.4664C235.384 55.938 234.731 52.9479 234.731 49.4962C234.731 46.1297 235.384 43.1751 236.691 40.6325C237.998 38.0898 239.837 36.1084 242.21 34.688C244.596 33.2675 247.394 32.5573 250.604 32.5573C252.763 32.5573 254.773 32.9052 256.634 33.6012C258.509 34.283 260.143 35.313 261.535 36.6908C262.941 38.0686 264.035 39.8015 264.816 41.8896C265.597 43.9634 265.988 46.3924 265.988 49.1765V51.6694H238.353V46.0444H257.444C257.444 44.7376 257.16 43.5799 256.592 42.5714C256.023 41.5629 255.235 40.7745 254.227 40.2063C253.232 39.6239 252.075 39.3327 250.754 39.3327C249.376 39.3327 248.154 39.6523 247.089 40.2915C246.038 40.9165 245.214 41.7617 244.617 42.8271C244.021 43.8782 243.715 45.0502 243.701 46.3428V51.6908C243.701 53.3101 243.999 54.7092 244.596 55.8881C245.207 57.0672 246.066 57.9762 247.174 58.6154C248.282 59.2546 249.596 59.5742 251.116 59.5742C252.124 59.5742 253.048 59.4323 253.886 59.1482C254.724 58.8641 255.441 58.438 256.038 57.8698C256.634 57.3016 257.089 56.6056 257.401 55.7817L265.796 56.3357C265.37 58.3527 264.496 60.1141 263.175 61.6198C261.869 63.1113 260.178 64.2759 258.104 65.114C256.045 65.9379 253.665 66.3498 250.967 66.3498Z" fill="white"/>
<path d="M250.967 66.3498C247.6 66.3498 244.702 65.668 242.273 64.3043C239.859 62.9265 237.998 60.9806 236.691 58.4664C235.384 55.938 234.731 52.9479 234.731 49.4962C234.731 46.1297 235.384 43.1751 236.691 40.6325C237.998 38.0898 239.837 36.1084 242.21 34.688C244.596 33.2675 247.394 32.5573 250.604 32.5573C252.763 32.5573 254.773 32.9052 256.634 33.6012C258.509 34.283 260.143 35.313 261.535 36.6908C262.941 38.0686 264.035 39.8015 264.816 41.8896C265.597 43.9634 265.988 46.3924 265.988 49.1765V51.6694H238.353V46.0444H257.444C257.444 44.7376 257.16 43.5799 256.592 42.5714C256.023 41.5629 255.235 40.7745 254.227 40.2063C253.232 39.6239 252.075 39.3327 250.754 39.3327C249.376 39.3327 248.154 39.6523 247.089 40.2915C246.038 40.9165 245.214 41.7617 244.617 42.8271C244.021 43.8782 243.715 45.0502 243.701 46.3428V51.6908C243.701 53.3101 243.999 54.7092 244.596 55.8881C245.207 57.0672 246.066 57.9762 247.174 58.6154C248.282 59.2546 249.596 59.5742 251.116 59.5742C252.124 59.5742 253.048 59.4323 253.886 59.1482C254.724 58.8641 255.441 58.438 256.038 57.8698C256.634 57.3016 257.089 56.6056 257.401 55.7817L265.796 56.3357C265.37 58.3527 264.496 60.1141 263.175 61.6198C261.869 63.1113 260.178 64.2759 258.104 65.114C256.045 65.9379 253.665 66.3498 250.967 66.3498Z" fill="white"/>
<path d="M289.319 32.9834V39.8016H269.61V32.9834H289.319ZM274.085 25.1425H283.161V55.6539C283.161 56.4919 283.289 57.1453 283.545 57.6141C283.8 58.0686 284.156 58.3882 284.61 58.5729C285.079 58.7576 285.619 58.8499 286.229 58.8499C286.656 58.8499 287.082 58.8144 287.508 58.7434C287.934 58.6581 288.261 58.5942 288.488 58.5516L289.915 65.3059C289.461 65.4479 288.822 65.6113 287.998 65.7959C287.174 65.9948 286.173 66.1155 284.994 66.1581C282.806 66.2434 280.888 65.9522 279.241 65.2845C277.607 64.6169 276.336 63.58 275.427 62.1737C274.518 60.7675 274.07 58.9919 274.085 56.847V25.1425Z" fill="white"/>
<path d="M289.319 32.9834V39.8016H269.61V32.9834H289.319ZM274.085 25.1425H283.161V55.6539C283.161 56.4919 283.289 57.1453 283.545 57.6141C283.8 58.0686 284.156 58.3882 284.61 58.5729C285.079 58.7576 285.619 58.8499 286.229 58.8499C286.656 58.8499 287.082 58.8144 287.508 58.7434C287.934 58.6581 288.261 58.5942 288.488 58.5516L289.915 65.3059C289.461 65.4479 288.822 65.6113 287.998 65.7959C287.174 65.9948 286.173 66.1155 284.994 66.1581C282.806 66.2434 280.888 65.9522 279.241 65.2845C277.607 64.6169 276.336 63.58 275.427 62.1737C274.518 60.7675 274.07 58.9919 274.085 56.847V25.1425Z" fill="white"/>
<path d="M309.795 66.3498C306.428 66.3498 303.531 65.668 301.102 64.3043C298.687 62.9265 296.826 60.9806 295.519 58.4664C294.212 55.938 293.559 52.9479 293.559 49.4962C293.559 46.1297 294.212 43.1751 295.519 40.6325C296.826 38.0898 298.665 36.1084 301.038 34.688C303.424 33.2675 306.222 32.5573 309.433 32.5573C311.592 32.5573 313.602 32.9052 315.462 33.6012C317.337 34.283 318.971 35.313 320.363 36.6908C321.769 38.0686 322.863 39.8015 323.644 41.8896C324.425 43.9634 324.816 46.3924 324.816 49.1765V51.6694H297.181V46.0444H316.272C316.272 44.7376 315.988 43.5799 315.42 42.5714C314.852 41.5629 314.063 40.7745 313.055 40.2063C312.06 39.6239 310.903 39.3327 309.582 39.3327C308.204 39.3327 306.982 39.6523 305.917 40.2915C304.866 40.9165 304.042 41.7617 303.445 42.8271C302.849 43.8782 302.543 45.0502 302.529 46.3428V51.6908C302.529 53.3101 302.827 54.7092 303.424 55.8881C304.035 57.0672 304.894 57.9762 306.002 58.6154C307.11 59.2546 308.424 59.5742 309.944 59.5742C310.952 59.5742 311.876 59.4323 312.714 59.1482C313.552 58.8641 314.269 58.438 314.866 57.8698C315.462 57.3016 315.917 56.6056 316.229 55.7817L324.624 56.3357C324.198 58.3527 323.325 60.1141 322.004 61.6198C320.697 63.1113 319.006 64.2759 316.933 65.114C314.873 65.9379 312.494 66.3498 309.795 66.3498Z" fill="white"/>
<path d="M309.795 66.3498C306.428 66.3498 303.531 65.668 301.102 64.3043C298.687 62.9265 296.826 60.9806 295.519 58.4664C294.212 55.938 293.559 52.9479 293.559 49.4962C293.559 46.1297 294.212 43.1751 295.519 40.6325C296.826 38.0898 298.665 36.1084 301.038 34.688C303.424 33.2675 306.222 32.5573 309.433 32.5573C311.592 32.5573 313.602 32.9052 315.462 33.6012C317.337 34.283 318.971 35.313 320.363 36.6908C321.769 38.0686 322.863 39.8015 323.644 41.8896C324.425 43.9634 324.816 46.3924 324.816 49.1765V51.6694H297.181V46.0444H316.272C316.272 44.7376 315.988 43.5799 315.42 42.5714C314.852 41.5629 314.063 40.7745 313.055 40.2063C312.06 39.6239 310.903 39.3327 309.582 39.3327C308.204 39.3327 306.982 39.6523 305.917 40.2915C304.866 40.9165 304.042 41.7617 303.445 42.8271C302.849 43.8782 302.543 45.0502 302.529 46.3428V51.6908C302.529 53.3101 302.827 54.7092 303.424 55.8881C304.035 57.0672 304.894 57.9762 306.002 58.6154C307.11 59.2546 308.424 59.5742 309.944 59.5742C310.952 59.5742 311.876 59.4323 312.714 59.1482C313.552 58.8641 314.269 58.438 314.866 57.8698C315.462 57.3016 315.917 56.6056 316.229 55.7817L324.624 56.3357C324.198 58.3527 323.325 60.1141 322.004 61.6198C320.697 63.1113 319.006 64.2759 316.933 65.114C314.873 65.9379 312.494 66.3498 309.795 66.3498Z" fill="white"/>
<path d="M345.526 66.3498C342.174 66.3498 339.29 65.6397 336.876 64.2192C334.475 62.7845 332.629 60.7959 331.336 58.2533C330.058 55.7106 329.418 52.7845 329.418 49.4748C329.418 46.1226 330.065 43.1823 331.357 40.6539C332.664 38.1112 334.518 36.1297 336.918 34.7093C339.319 33.2746 342.174 32.5573 345.484 32.5573C348.339 32.5573 350.839 33.0756 352.984 34.1126C355.129 35.1495 356.826 36.6055 358.076 38.4805C359.326 40.3555 360.015 42.5573 360.143 45.0857H351.577C351.336 43.4522 350.697 42.1381 349.66 41.1438C348.637 40.1353 347.295 39.6311 345.633 39.6311C344.227 39.6311 342.998 40.0147 341.947 40.7817C340.91 41.5345 340.1 42.6354 339.518 44.0843C338.935 45.5331 338.644 47.2874 338.644 49.347C338.644 51.4351 338.928 53.2106 339.496 54.6736C340.079 56.1367 340.896 57.2518 341.947 58.0188C342.998 58.7859 344.227 59.1694 345.633 59.1694C346.67 59.1694 347.6 58.9564 348.424 58.5303C349.262 58.104 349.951 57.4862 350.491 56.6765C351.045 55.8526 351.407 54.8655 351.577 53.7149H360.143C360.001 56.2149 359.319 58.4165 358.097 60.32C356.89 62.2092 355.221 63.6865 353.09 64.7519C350.959 65.8172 348.438 66.3498 345.526 66.3498Z" fill="white"/>
<path d="M345.526 66.3498C342.174 66.3498 339.29 65.6397 336.876 64.2192C334.475 62.7845 332.629 60.7959 331.336 58.2533C330.058 55.7106 329.418 52.7845 329.418 49.4748C329.418 46.1226 330.065 43.1823 331.357 40.6539C332.664 38.1112 334.518 36.1297 336.918 34.7093C339.319 33.2746 342.174 32.5573 345.484 32.5573C348.339 32.5573 350.839 33.0756 352.984 34.1126C355.129 35.1495 356.826 36.6055 358.076 38.4805C359.326 40.3555 360.015 42.5573 360.143 45.0857H351.577C351.336 43.4522 350.697 42.1381 349.66 41.1438C348.637 40.1353 347.295 39.6311 345.633 39.6311C344.227 39.6311 342.998 40.0147 341.947 40.7817C340.91 41.5345 340.1 42.6354 339.518 44.0843C338.935 45.5331 338.644 47.2874 338.644 49.347C338.644 51.4351 338.928 53.2106 339.496 54.6736C340.079 56.1367 340.896 57.2518 341.947 58.0188C342.998 58.7859 344.227 59.1694 345.633 59.1694C346.67 59.1694 347.6 58.9564 348.424 58.5303C349.262 58.104 349.951 57.4862 350.491 56.6765C351.045 55.8526 351.407 54.8655 351.577 53.7149H360.143C360.001 56.2149 359.319 58.4165 358.097 60.32C356.89 62.2092 355.221 63.6865 353.09 64.7519C350.959 65.8172 348.438 66.3498 345.526 66.3498Z" fill="white"/>
<path d="M383.362 32.9834V39.8016H363.653V32.9834H383.362ZM368.127 25.1425H377.204V55.6539C377.204 56.4919 377.332 57.1453 377.588 57.6141C377.843 58.0686 378.198 58.3882 378.653 58.5729C379.122 58.7576 379.662 58.8499 380.272 58.8499C380.699 58.8499 381.125 58.8144 381.551 58.7434C381.977 58.6581 382.304 58.5942 382.531 58.5516L383.958 65.3059C383.504 65.4479 382.865 65.6113 382.041 65.7959C381.217 65.9948 380.216 66.1155 379.037 66.1581C376.849 66.2434 374.931 65.9522 373.284 65.2845C371.65 64.6169 370.379 63.58 369.47 62.1737C368.561 60.7675 368.113 58.9919 368.127 56.847V25.1425Z" fill="white"/>
<path d="M383.362 32.9834V39.8016H363.653V32.9834H383.362ZM368.127 25.1425H377.204V55.6539C377.204 56.4919 377.332 57.1453 377.588 57.6141C377.843 58.0686 378.198 58.3882 378.653 58.5729C379.122 58.7576 379.662 58.8499 380.272 58.8499C380.699 58.8499 381.125 58.8144 381.551 58.7434C381.977 58.6581 382.304 58.5942 382.531 58.5516L383.958 65.3059C383.504 65.4479 382.865 65.6113 382.041 65.7959C381.217 65.9948 380.216 66.1155 379.037 66.1581C376.849 66.2434 374.931 65.9522 373.284 65.2845C371.65 64.6169 370.379 63.58 369.47 62.1737C368.561 60.7675 368.113 58.9919 368.127 56.847V25.1425Z" fill="white"/>
<path d="M398.607 66.3285C396.519 66.3285 394.658 65.9663 393.025 65.2418C391.391 64.5032 390.098 63.4165 389.147 61.9819C388.209 60.533 387.74 58.729 387.74 56.57C387.74 54.7519 388.074 53.2248 388.742 51.989C389.409 50.7532 390.319 49.7589 391.469 49.0061C392.62 48.2533 393.926 47.685 395.39 47.3015C396.867 46.918 398.415 46.6481 400.034 46.4918C401.938 46.293 403.472 46.1083 404.637 45.938C405.801 45.7533 406.647 45.4833 407.172 45.1283C407.698 44.7732 407.961 44.2475 407.961 43.5515V43.4236C407.961 42.0742 407.534 41.0302 406.682 40.2915C405.844 39.5529 404.651 39.1837 403.103 39.1837C401.469 39.1837 400.169 39.5458 399.203 40.2702C398.238 40.9805 397.598 41.8754 397.286 42.9549L388.891 42.2732C389.317 40.2845 390.155 38.5657 391.405 37.1168C392.655 35.6538 394.267 34.5317 396.242 33.7505C398.23 32.955 400.532 32.5573 403.145 32.5573C404.963 32.5573 406.703 32.7702 408.365 33.1964C410.042 33.6225 411.526 34.283 412.819 35.1779C414.125 36.0728 415.155 37.2235 415.908 38.6297C416.661 40.0217 417.037 41.6907 417.037 43.6367V65.7107H408.429V61.1722H408.174C407.648 62.195 406.945 63.097 406.064 63.8783C405.184 64.6452 404.125 65.249 402.89 65.6894C401.654 66.1155 400.226 66.3285 398.607 66.3285ZM401.206 60.0644C402.542 60.0644 403.721 59.8016 404.743 59.276C405.766 58.7363 406.569 58.0117 407.151 57.1026C407.733 56.1936 408.025 55.1637 408.025 54.0131V50.5401C407.74 50.7248 407.35 50.8952 406.853 51.0515C406.37 51.1935 405.823 51.3285 405.212 51.4563C404.601 51.57 403.99 51.6766 403.38 51.776C402.769 51.8613 402.215 51.9394 401.718 52.0103C400.652 52.1665 399.722 52.4151 398.926 52.7561C398.131 53.097 397.513 53.5586 397.073 54.141C396.632 54.7092 396.412 55.4195 396.412 56.2718C396.412 57.5076 396.86 58.4521 397.755 59.1055C398.664 59.7447 399.814 60.0644 401.206 60.0644Z" fill="white"/>
<path d="M398.607 66.3285C396.519 66.3285 394.658 65.9663 393.025 65.2418C391.391 64.5032 390.098 63.4165 389.147 61.9819C388.209 60.533 387.74 58.729 387.74 56.57C387.74 54.7519 388.074 53.2248 388.742 51.989C389.409 50.7532 390.319 49.7589 391.469 49.0061C392.62 48.2533 393.926 47.685 395.39 47.3015C396.867 46.918 398.415 46.6481 400.034 46.4918C401.938 46.293 403.472 46.1083 404.637 45.938C405.801 45.7533 406.647 45.4833 407.172 45.1283C407.698 44.7732 407.961 44.2475 407.961 43.5515V43.4236C407.961 42.0742 407.534 41.0302 406.682 40.2915C405.844 39.5529 404.651 39.1837 403.103 39.1837C401.469 39.1837 400.169 39.5458 399.203 40.2702C398.238 40.9805 397.598 41.8754 397.286 42.9549L388.891 42.2732C389.317 40.2845 390.155 38.5657 391.405 37.1168C392.655 35.6538 394.267 34.5317 396.242 33.7505C398.23 32.955 400.532 32.5573 403.145 32.5573C404.963 32.5573 406.703 32.7702 408.365 33.1964C410.042 33.6225 411.526 34.283 412.819 35.1779C414.125 36.0728 415.155 37.2235 415.908 38.6297C416.661 40.0217 417.037 41.6907 417.037 43.6367V65.7107H408.429V61.1722H408.174C407.648 62.195 406.945 63.097 406.064 63.8783C405.184 64.6452 404.125 65.249 402.89 65.6894C401.654 66.1155 400.226 66.3285 398.607 66.3285ZM401.206 60.0644C402.542 60.0644 403.721 59.8016 404.743 59.276C405.766 58.7363 406.569 58.0117 407.151 57.1026C407.733 56.1936 408.025 55.1637 408.025 54.0131V50.5401C407.74 50.7248 407.35 50.8952 406.853 51.0515C406.37 51.1935 405.823 51.3285 405.212 51.4563C404.601 51.57 403.99 51.6766 403.38 51.776C402.769 51.8613 402.215 51.9394 401.718 52.0103C400.652 52.1665 399.722 52.4151 398.926 52.7561C398.131 53.097 397.513 53.5586 397.073 54.141C396.632 54.7092 396.412 55.4195 396.412 56.2718C396.412 57.5076 396.86 58.4521 397.755 59.1055C398.664 59.7447 399.814 60.0644 401.206 60.0644Z" fill="white"/>
<path d="M424.25 65.7106V22.0742H433.326V38.4805H433.603C434.001 37.5998 434.576 36.7049 435.329 35.7958C436.096 34.8725 437.091 34.1055 438.312 33.4947C439.548 32.8697 441.082 32.5572 442.914 32.5572C445.301 32.5572 447.502 33.1822 449.52 34.4322C451.537 35.668 453.149 37.5359 454.356 40.0359C455.564 42.5217 456.167 45.6396 456.167 49.3896C456.167 53.0401 455.578 56.1225 454.399 58.6367C453.234 61.1367 451.643 63.033 449.626 64.3256C447.623 65.604 445.379 66.2433 442.893 66.2433C441.132 66.2433 439.633 65.9521 438.397 65.3697C437.176 64.7873 436.174 64.0558 435.393 63.1751C434.612 62.2802 434.015 61.3782 433.603 60.4691H433.199V65.7106H424.25ZM433.135 49.3469C433.135 51.293 433.404 52.9904 433.944 54.4393C434.484 55.8881 435.265 57.0174 436.288 57.8271C437.311 58.6225 438.554 59.0202 440.017 59.0202C441.494 59.0202 442.744 58.6154 443.767 57.8058C444.789 56.9819 445.564 55.8455 446.089 54.3967C446.629 52.9336 446.899 51.2504 446.899 49.3469C446.899 47.4577 446.636 45.7958 446.11 44.3611C445.585 42.9265 444.811 41.8043 443.788 40.9947C442.765 40.185 441.508 39.7802 440.017 39.7802C438.539 39.7802 437.289 40.1708 436.267 40.9521C435.258 41.7333 434.484 42.8413 433.944 44.2759C433.404 45.7106 433.135 47.4009 433.135 49.3469Z" fill="white"/>
<path d="M424.25 65.7106V22.0742H433.326V38.4805H433.603C434.001 37.5998 434.576 36.7049 435.329 35.7958C436.096 34.8725 437.091 34.1055 438.312 33.4947C439.548 32.8697 441.082 32.5572 442.914 32.5572C445.301 32.5572 447.502 33.1822 449.52 34.4322C451.537 35.668 453.149 37.5359 454.356 40.0359C455.564 42.5217 456.167 45.6396 456.167 49.3896C456.167 53.0401 455.578 56.1225 454.399 58.6367C453.234 61.1367 451.643 63.033 449.626 64.3256C447.623 65.604 445.379 66.2433 442.893 66.2433C441.132 66.2433 439.633 65.9521 438.397 65.3697C437.176 64.7873 436.174 64.0558 435.393 63.1751C434.612 62.2802 434.015 61.3782 433.603 60.4691H433.199V65.7106H424.25ZM433.135 49.3469C433.135 51.293 433.404 52.9904 433.944 54.4393C434.484 55.8881 435.265 57.0174 436.288 57.8271C437.311 58.6225 438.554 59.0202 440.017 59.0202C441.494 59.0202 442.744 58.6154 443.767 57.8058C444.789 56.9819 445.564 55.8455 446.089 54.3967C446.629 52.9336 446.899 51.2504 446.899 49.3469C446.899 47.4577 446.636 45.7958 446.11 44.3611C445.585 42.9265 444.811 41.8043 443.788 40.9947C442.765 40.185 441.508 39.7802 440.017 39.7802C438.539 39.7802 437.289 40.1708 436.267 40.9521C435.258 41.7333 434.484 42.8413 433.944 44.2759C433.404 45.7106 433.135 47.4009 433.135 49.3469Z" fill="white"/>
<path d="M471.3 22.0742V65.7106H462.224V22.0742H471.3Z" fill="white"/>
<path d="M471.3 22.0742V65.7106H462.224V22.0742H471.3Z" fill="white"/>
<path d="M493.486 66.3498C490.12 66.3498 487.222 65.668 484.793 64.3043C482.378 62.9265 480.517 60.9806 479.211 58.4664C477.904 55.938 477.25 52.9479 477.25 49.4962C477.25 46.1297 477.904 43.1751 479.211 40.6325C480.517 38.0898 482.357 36.1084 484.729 34.688C487.115 33.2675 489.914 32.5573 493.124 32.5573C495.283 32.5573 497.293 32.9052 499.154 33.6012C501.029 34.283 502.662 35.313 504.054 36.6908C505.461 38.0686 506.554 39.8015 507.336 41.8896C508.117 43.9634 508.507 46.3924 508.507 49.1765V51.6694H480.873V46.0444H499.963C499.963 44.7376 499.679 43.5799 499.111 42.5714C498.543 41.5629 497.755 40.7745 496.746 40.2063C495.752 39.6239 494.594 39.3327 493.273 39.3327C491.895 39.3327 490.674 39.6523 489.608 40.2915C488.557 40.9165 487.733 41.7617 487.137 42.8271C486.54 43.8782 486.235 45.0502 486.221 46.3428V51.6908C486.221 53.3101 486.519 54.7092 487.115 55.8881C487.726 57.0672 488.586 57.9762 489.694 58.6154C490.801 59.2546 492.115 59.5742 493.635 59.5742C494.644 59.5742 495.567 59.4323 496.405 59.1482C497.243 58.8641 497.961 58.438 498.557 57.8698C499.154 57.3016 499.608 56.6056 499.921 55.7817L508.316 56.3357C507.89 58.3527 507.016 60.1141 505.695 61.6198C504.388 63.1113 502.698 64.2759 500.624 65.114C498.564 65.9379 496.185 66.3498 493.486 66.3498Z" fill="white"/>
<path d="M493.486 66.3498C490.12 66.3498 487.222 65.668 484.793 64.3043C482.378 62.9265 480.517 60.9806 479.211 58.4664C477.904 55.938 477.25 52.9479 477.25 49.4962C477.25 46.1297 477.904 43.1751 479.211 40.6325C480.517 38.0898 482.357 36.1084 484.729 34.688C487.115 33.2675 489.914 32.5573 493.124 32.5573C495.283 32.5573 497.293 32.9052 499.154 33.6012C501.029 34.283 502.662 35.313 504.054 36.6908C505.461 38.0686 506.554 39.8015 507.336 41.8896C508.117 43.9634 508.507 46.3924 508.507 49.1765V51.6694H480.873V46.0444H499.963C499.963 44.7376 499.679 43.5799 499.111 42.5714C498.543 41.5629 497.755 40.7745 496.746 40.2063C495.752 39.6239 494.594 39.3327 493.273 39.3327C491.895 39.3327 490.674 39.6523 489.608 40.2915C488.557 40.9165 487.733 41.7617 487.137 42.8271C486.54 43.8782 486.235 45.0502 486.221 46.3428V51.6908C486.221 53.3101 486.519 54.7092 487.115 55.8881C487.726 57.0672 488.586 57.9762 489.694 58.6154C490.801 59.2546 492.115 59.5742 493.635 59.5742C494.644 59.5742 495.567 59.4323 496.405 59.1482C497.243 58.8641 497.961 58.438 498.557 57.8698C499.154 57.3016 499.608 56.6056 499.921 55.7817L508.316 56.3357C507.89 58.3527 507.016 60.1141 505.695 61.6198C504.388 63.1113 502.698 64.2759 500.624 65.114C498.564 65.9379 496.185 66.3498 493.486 66.3498Z" fill="white"/>
<g opacity="0.7">
<path d="M41.6939 0.217954C40.5093 -0.332334 39.0781 0.197137 38.5284 1.38157C30.9503 17.4861 27.8747 34.3459 31.383 52.9618C31.7814 53.8772 32.7531 54.4543 33.6891 54.3533C33.9861 54.3326 34.2441 54.2669 34.5471 54.1622C35.7264 53.6145 36.2942 52.1781 35.7459 50.9985C32.9265 34.7501 36.1135 17.7641 42.898 3.42932C43.4087 2.19985 42.8786 0.768241 41.6939 0.217954Z" fill="white"/>
<path d="M43.8686 16.1675C40.8898 26.4635 39.7017 37.1004 40.3554 47.9554C40.4266 49.3115 41.581 50.2817 42.898 50.1661C44.254 50.0956 45.2236 48.9416 45.1074 47.6245C44.4953 37.3636 45.6082 27.1856 48.4606 17.4715C48.8484 16.1909 48.0992 14.87 46.8185 14.4816C45.5767 14.1383 44.2564 14.8869 43.8686 16.1675Z" fill="white"/>
<path d="M61.9654 4.36235C60.6787 3.6351 59.0407 4.12497 58.3945 5.45417C54.8603 12.7232 49.2389 26.1862 50.5312 47.3423L50.5702 47.3873C50.6918 49.8025 49.7276 52.0545 47.7977 53.6455C45.9069 55.2815 43.4557 55.9058 41.0891 55.3543C39.8024 55.0499 38.521 55.8435 38.2562 57.1753C37.9525 58.462 38.7467 59.7439 40.0785 60.0093C41.2423 60.2625 42.4182 60.3478 43.5611 60.304C46.2341 60.1179 48.7995 59.0797 50.9545 57.2939C54.0098 54.7292 55.6319 50.9629 55.3672 47.0175C55.3672 47.0175 55.3282 46.9725 55.3732 46.9335C54.1829 27.0909 59.3816 14.5966 62.9649 7.93211C63.6475 6.66266 63.2202 5.07156 61.9654 4.36235Z" fill="white"/>
<path d="M29.9412 2.17544C28.6756 1.68143 27.2466 2.30592 26.7481 3.56977C24.7939 7.75807 23.636 12.0078 23.0149 16.8158C22.8409 18.1626 23.8019 19.3247 25.1182 19.448C26.4647 19.6226 27.6261 18.662 27.7488 17.3454C28.5185 13.0084 29.5483 10.403 31.364 5.23954C31.7988 4.00321 31.1621 2.65197 29.9412 2.17544Z" fill="white"/>
<path d="M9.65343 69.1154C8.61028 69.9162 8.38183 71.4241 9.18317 72.4677C10.9845 74.8579 13.045 77.0899 15.3275 79.0359C15.8156 79.4769 16.4821 79.6723 17.1586 79.6152C17.751 79.5548 18.3096 79.2823 18.7504 78.7943C19.6319 77.8184 19.5238 76.297 18.5475 75.4149C16.5511 73.6911 14.6927 71.6779 13.09 69.5907C12.2045 68.5437 10.6966 68.3145 9.65343 69.1154Z" fill="white"/>
<path d="M75.6879 69.655C74.6403 68.8478 73.1235 69.0058 72.3167 70.0529C61.7468 83.4123 41.9685 88.1185 26.3087 80.8946C25.0911 80.3388 23.6981 80.8766 23.143 82.0939C22.5878 83.3112 23.1263 84.7044 24.3439 85.2602C41.8327 93.2433 64.1471 88.1221 76.1298 72.9845C76.8941 71.9792 76.7354 70.4623 75.6879 69.655Z" fill="white"/>
<path d="M4.94434 23.8918C3.86588 23.7848 2.84681 24.4197 2.52075 25.4533C-0.852221 36.145 -1.03017 50.4802 3.14635 62.2977C3.52191 63.284 4.41891 63.8741 5.39547 63.8802C5.69318 63.8784 5.95486 63.8292 6.1805 63.7326C7.42818 63.3082 8.08602 61.9107 7.66112 60.6627C3.7069 49.6724 4.6515 37.722 7.04243 26.8154C7.3507 25.4091 6.37695 24.0339 4.94434 23.8918Z" fill="white"/>
<path d="M81.5119 23.8918C82.5904 23.7848 83.6095 24.4197 83.9355 25.4533C87.3085 36.145 87.4864 50.4802 83.3099 62.2977C82.9344 63.284 82.0374 63.8741 81.0608 63.8802C80.7631 63.8784 80.5014 63.8292 80.2758 63.7326C79.0281 63.3082 78.3703 61.9107 78.7952 60.6627C82.7494 49.6724 81.8048 37.722 79.4138 26.8154C79.1056 25.4091 80.0793 24.0339 81.5119 23.8918Z" fill="white"/>
<path d="M71.0877 9.41495C69.9176 8.81462 68.4569 9.25312 67.8564 10.4239C67.0762 11.5121 65.973 14.139 65.7134 15.6902C65.5236 16.3201 65.632 17.0061 65.973 17.5932C66.281 18.1027 66.7663 18.4911 67.3959 18.6808C68.6551 19.0602 69.9841 18.3116 70.3638 17.0518C70.7135 15.8913 71.3196 13.9369 72.128 12.7246C72.9364 11.5122 72.2578 10.0153 71.0877 9.41495Z" fill="white"/>
<path d="M16.8174 8.34806C15.5709 7.92898 14.192 8.58045 13.7728 9.82766C13.1637 11.0201 12.4646 14.5905 12.4393 16.163C12.3456 16.8142 12.5552 17.4763 12.9799 18.006C13.3605 18.4639 13.8982 18.7755 14.5491 18.8692C15.8508 19.0565 17.0532 18.1181 17.2408 16.8158C17.4135 15.616 17.9218 12.9017 18.3398 11.4655C18.7579 10.0293 18.064 8.76715 16.8174 8.34806Z" fill="white"/>
<path d="M52.4618 1.48281C51.2917 0.882481 49.831 1.32099 49.2305 2.49172C48.4504 3.57997 47.3471 6.20687 47.0875 7.75807C46.8977 8.38797 47.0062 9.07397 47.3471 9.66104C47.6552 10.1706 48.1405 10.559 48.7701 10.7487C50.0293 11.128 51.3582 10.3795 51.7379 9.11971C52.0877 7.95915 52.6938 6.0048 53.5022 4.79242C54.3105 3.58004 53.6319 2.08314 52.4618 1.48281Z" fill="white"/>
<path d="M80.4128 17.3721C80.4128 18.7113 79.3271 19.7969 77.9879 19.7969C76.6488 19.7969 75.5631 18.7113 75.5631 17.3721C75.5631 16.0329 76.6488 14.9473 77.9879 14.9473C79.3271 14.9473 80.4128 16.0329 80.4128 17.3721Z" fill="white"/>
</g>
<path d="M11.0068 47.2953C11.0068 54.4044 13.7671 59.5422 17.7855 62.9486C24.7773 68.8757 35.5152 69.7582 43.7139 65.9285C43.3651 65.9482 43.0137 65.9582 42.66 65.9582C32.4322 65.9582 24.1409 57.6026 24.1409 47.2953L24.1409 24.6412C24.1409 23.1905 22.9649 22.0144 21.5141 22.0144C15.7111 22.0144 11.0068 26.7187 11.0068 32.5217V47.2953Z" fill="white"/>
<path d="M17.2796 66.3593C23.0509 74.1501 32.2712 79.1943 42.6605 79.1943C60.1421 79.1943 74.3137 64.9127 74.3137 47.2953V24.6412C74.3137 23.1905 73.1376 22.0144 71.6869 22.0144C65.8839 22.0144 61.1796 26.7187 61.1796 32.5217V47.2953C61.1796 68.8114 33.2628 77.8552 17.2796 66.3593Z" fill="white"/>
</svg>
