<svg width="184" height="32" viewBox="0 0 184 32" fill="none" xmlns="http://www.w3.org/2000/svg">
<g opacity="0.7">
<path d="M14.8245 0.0774946C14.4033 -0.118163 13.8944 0.070093 13.699 0.491225C11.0045 6.21729 9.91102 12.2119 11.1584 18.8309C11.3001 19.1564 11.6455 19.3615 11.9783 19.3256C12.0839 19.3183 12.1757 19.2949 12.2834 19.2577C12.7027 19.0629 12.9046 18.5522 12.7097 18.1328C11.7072 12.3556 12.8404 6.31613 15.2526 1.21932C15.4342 0.782169 15.2457 0.273152 14.8245 0.0774946Z" fill="#375FE9"/>
<path d="M14.8245 0.0774946C14.4033 -0.118163 13.8944 0.070093 13.699 0.491225C11.0045 6.21729 9.91102 12.2119 11.1584 18.8309C11.3001 19.1564 11.6455 19.3615 11.9783 19.3256C12.0839 19.3183 12.1757 19.2949 12.2834 19.2577C12.7027 19.0629 12.9046 18.5522 12.7097 18.1328C11.7072 12.3556 12.8404 6.31613 15.2526 1.21932C15.4342 0.782169 15.2457 0.273152 14.8245 0.0774946Z" fill="url(#paint0_linear)"/>
<path d="M15.5977 5.74845C14.5386 9.40925 14.1162 13.1913 14.3486 17.0508C14.3739 17.533 14.7844 17.8779 15.2526 17.8368C15.7347 17.8118 16.0795 17.4015 16.0382 16.9331C15.8206 13.2848 16.2162 9.66599 17.2305 6.21208C17.3683 5.75676 17.1019 5.28712 16.6466 5.14903C16.2051 5.02695 15.7356 5.29312 15.5977 5.74845Z" fill="#375FE9"/>
<path d="M15.5977 5.74845C14.5386 9.40925 14.1162 13.1913 14.3486 17.0508C14.3739 17.533 14.7844 17.8779 15.2526 17.8368C15.7347 17.8118 16.0795 17.4015 16.0382 16.9331C15.8206 13.2848 16.2162 9.66599 17.2305 6.21208C17.3683 5.75676 17.1019 5.28712 16.6466 5.14903C16.2051 5.02695 15.7356 5.29312 15.5977 5.74845Z" fill="url(#paint1_linear)"/>
<path d="M22.0321 1.55106C21.5747 1.29248 20.9923 1.46665 20.7625 1.93926C19.5059 4.5238 17.5072 9.31063 17.9667 16.8328L17.9805 16.8488C18.0238 17.7076 17.6809 18.5083 16.9948 19.074C16.3225 19.6556 15.4509 19.8776 14.6095 19.6815C14.1519 19.5733 13.6963 19.8555 13.6022 20.329C13.4942 20.7865 13.7766 21.2423 14.2501 21.3366C14.6639 21.4267 15.082 21.457 15.4884 21.4414C16.4388 21.3753 17.3509 21.0061 18.1171 20.3712C19.2035 19.4593 19.7802 18.1201 19.6861 16.7173C19.6861 16.7173 19.6723 16.7013 19.6883 16.6875C19.265 9.63231 21.1134 5.18989 22.3875 2.82031C22.6302 2.36895 22.4783 1.80322 22.0321 1.55106Z" fill="#375FE9"/>
<path d="M22.0321 1.55106C21.5747 1.29248 20.9923 1.46665 20.7625 1.93926C19.5059 4.5238 17.5072 9.31063 17.9667 16.8328L17.9805 16.8488C18.0238 17.7076 17.6809 18.5083 16.9948 19.074C16.3225 19.6556 15.4509 19.8776 14.6095 19.6815C14.1519 19.5733 13.6963 19.8555 13.6022 20.329C13.4942 20.7865 13.7766 21.2423 14.2501 21.3366C14.6639 21.4267 15.082 21.457 15.4884 21.4414C16.4388 21.3753 17.3509 21.0061 18.1171 20.3712C19.2035 19.4593 19.7802 18.1201 19.6861 16.7173C19.6861 16.7173 19.6723 16.7013 19.6883 16.6875C19.265 9.63231 21.1134 5.18989 22.3875 2.82031C22.6302 2.36895 22.4783 1.80322 22.0321 1.55106Z" fill="url(#paint2_linear)"/>
<path d="M10.6458 0.77349C10.1958 0.597843 9.68767 0.819881 9.51043 1.26925C8.81562 2.75842 8.40392 4.26943 8.18308 5.97895C8.12122 6.4578 8.46289 6.87101 8.9309 6.91485C9.40967 6.97694 9.82263 6.63537 9.86625 6.16726C10.1399 4.62522 10.5061 3.69884 11.1516 1.86295C11.3062 1.42336 11.0798 0.942923 10.6458 0.77349Z" fill="#375FE9"/>
<path d="M10.6458 0.77349C10.1958 0.597843 9.68767 0.819881 9.51043 1.26925C8.81562 2.75842 8.40392 4.26943 8.18308 5.97895C8.12122 6.4578 8.46289 6.87101 8.9309 6.91485C9.40967 6.97694 9.82263 6.63537 9.86625 6.16726C10.1399 4.62522 10.5061 3.69884 11.1516 1.86295C11.3062 1.42336 11.0798 0.942923 10.6458 0.77349Z" fill="url(#paint3_linear)"/>
<path d="M3.43233 24.5744C3.06143 24.8591 2.98021 25.3952 3.26513 25.7663C3.9056 26.6161 4.63821 27.4097 5.44977 28.1016C5.62334 28.2585 5.86031 28.3279 6.10084 28.3076C6.31146 28.2861 6.51008 28.1892 6.6668 28.0158C6.98024 27.6688 6.9418 27.1278 6.59466 26.8142C5.88485 26.2013 5.22406 25.4855 4.65422 24.7434C4.33938 24.3711 3.80323 24.2896 3.43233 24.5744Z" fill="#375FE9"/>
<path d="M3.43233 24.5744C3.06143 24.8591 2.98021 25.3952 3.26513 25.7663C3.9056 26.6161 4.63821 27.4097 5.44977 28.1016C5.62334 28.2585 5.86031 28.3279 6.10084 28.3076C6.31146 28.2861 6.51008 28.1892 6.6668 28.0158C6.98024 27.6688 6.9418 27.1278 6.59466 26.8142C5.88485 26.2013 5.22406 25.4855 4.65422 24.7434C4.33938 24.3711 3.80323 24.2896 3.43233 24.5744Z" fill="url(#paint4_linear)"/>
<path d="M26.9112 24.7662C26.5388 24.4792 25.9995 24.5354 25.7126 24.9077C21.9544 29.6577 14.9221 31.331 9.35419 28.7625C8.92128 28.5649 8.42601 28.7561 8.22861 29.1889C8.03122 29.6218 8.22269 30.1171 8.6556 30.3147C14.8738 33.1532 22.8078 31.3323 27.0684 25.9501C27.3401 25.5926 27.2837 25.0533 26.9112 24.7662Z" fill="#375FE9"/>
<path d="M26.9112 24.7662C26.5388 24.4792 25.9995 24.5354 25.7126 24.9077C21.9544 29.6577 14.9221 31.331 9.35419 28.7625C8.92128 28.5649 8.42601 28.7561 8.22861 29.1889C8.03122 29.6218 8.22269 30.1171 8.6556 30.3147C14.8738 33.1532 22.8078 31.3323 27.0684 25.9501C27.3401 25.5926 27.2837 25.0533 26.9112 24.7662Z" fill="url(#paint5_linear)"/>
<path d="M1.75799 8.49485C1.37453 8.45682 1.0122 8.68258 0.896267 9.05006C-0.303012 12.8516 -0.366281 17.9485 1.1187 22.1503C1.25224 22.501 1.57117 22.7108 1.91839 22.713C2.02424 22.7123 2.11728 22.6948 2.19751 22.6605C2.64113 22.5096 2.87503 22.0127 2.72396 21.569C1.31801 17.6613 1.65387 13.4123 2.50398 9.53435C2.61358 9.03435 2.26736 8.54537 1.75799 8.49485Z" fill="#375FE9"/>
<path d="M1.75799 8.49485C1.37453 8.45682 1.0122 8.68258 0.896267 9.05006C-0.303012 12.8516 -0.366281 17.9485 1.1187 22.1503C1.25224 22.501 1.57117 22.7108 1.91839 22.713C2.02424 22.7123 2.11728 22.6948 2.19751 22.6605C2.64113 22.5096 2.87503 22.0127 2.72396 21.569C1.31801 17.6613 1.65387 13.4123 2.50398 9.53435C2.61358 9.03435 2.26736 8.54537 1.75799 8.49485Z" fill="url(#paint6_linear)"/>
<path d="M28.982 8.49485C29.3655 8.45682 29.7278 8.68258 29.8437 9.05006C31.043 12.8516 31.1063 17.9485 29.6213 22.1503C29.4878 22.501 29.1688 22.7108 28.8216 22.713C28.7158 22.7123 28.6227 22.6948 28.5425 22.6605C28.0989 22.5096 27.865 22.0127 28.0161 21.569C29.422 17.6613 29.0861 13.4123 28.236 9.53435C28.1264 9.03435 28.4727 8.54537 28.982 8.49485Z" fill="#375FE9"/>
<path d="M28.982 8.49485C29.3655 8.45682 29.7278 8.68258 29.8437 9.05006C31.043 12.8516 31.1063 17.9485 29.6213 22.1503C29.4878 22.501 29.1688 22.7108 28.8216 22.713C28.7158 22.7123 28.6227 22.6948 28.5425 22.6605C28.0989 22.5096 27.865 22.0127 28.0161 21.569C29.422 17.6613 29.0861 13.4123 28.236 9.53435C28.1264 9.03435 28.4727 8.54537 28.982 8.49485Z" fill="url(#paint7_linear)"/>
<path d="M25.2756 3.34754C24.8596 3.13409 24.3402 3.29 24.1267 3.70626C23.8493 4.09319 23.4571 5.0272 23.3648 5.57874C23.2973 5.8027 23.3358 6.04662 23.4571 6.25535C23.5666 6.43653 23.7391 6.57462 23.963 6.64206C24.4107 6.77695 24.8832 6.51081 25.0182 6.06288C25.1426 5.65023 25.3581 4.95535 25.6455 4.52429C25.9329 4.09322 25.6917 3.56099 25.2756 3.34754Z" fill="#375FE9"/>
<path d="M25.2756 3.34754C24.8596 3.13409 24.3402 3.29 24.1267 3.70626C23.8493 4.09319 23.4571 5.0272 23.3648 5.57874C23.2973 5.8027 23.3358 6.04662 23.4571 6.25535C23.5666 6.43653 23.7391 6.57462 23.963 6.64206C24.4107 6.77695 24.8832 6.51081 25.0182 6.06288C25.1426 5.65023 25.3581 4.95535 25.6455 4.52429C25.9329 4.09322 25.6917 3.56099 25.2756 3.34754Z" fill="url(#paint8_linear)"/>
<path d="M5.97954 2.9682C5.53632 2.81919 5.04604 3.05083 4.897 3.49428C4.68043 3.91826 4.43187 5.18772 4.42287 5.74685C4.38953 5.97838 4.46406 6.21381 4.61507 6.40213C4.75039 6.56494 4.9416 6.67575 5.17301 6.70905C5.63584 6.77564 6.06337 6.442 6.13005 5.97895C6.19147 5.55237 6.37219 4.58726 6.52083 4.07661C6.66947 3.56596 6.42276 3.11721 5.97954 2.9682Z" fill="#375FE9"/>
<path d="M5.97954 2.9682C5.53632 2.81919 5.04604 3.05083 4.897 3.49428C4.68043 3.91826 4.43187 5.18772 4.42287 5.74685C4.38953 5.97838 4.46406 6.21381 4.61507 6.40213C4.75039 6.56494 4.9416 6.67575 5.17301 6.70905C5.63584 6.77564 6.06337 6.442 6.13005 5.97895C6.19147 5.55237 6.37219 4.58726 6.52083 4.07661C6.66947 3.56596 6.42276 3.11721 5.97954 2.9682Z" fill="url(#paint9_linear)"/>
<path d="M18.6531 0.527222C18.2371 0.313771 17.7177 0.469684 17.5042 0.885944C17.2268 1.27288 16.8345 2.20689 16.7422 2.75842C16.6747 2.98239 16.7133 3.2263 16.8345 3.43504C16.9441 3.61622 17.1166 3.7543 17.3405 3.82175C17.7882 3.95664 18.2607 3.69049 18.3957 3.24256C18.5201 2.82992 18.7356 2.13504 19.023 1.70397C19.3104 1.2729 19.0691 0.740673 18.6531 0.527222Z" fill="#375FE9"/>
<path d="M18.6531 0.527222C18.2371 0.313771 17.7177 0.469684 17.5042 0.885944C17.2268 1.27288 16.8345 2.20689 16.7422 2.75842C16.6747 2.98239 16.7133 3.2263 16.8345 3.43504C16.9441 3.61622 17.1166 3.7543 17.3405 3.82175C17.7882 3.95664 18.2607 3.69049 18.3957 3.24256C18.5201 2.82992 18.7356 2.13504 19.023 1.70397C19.3104 1.2729 19.0691 0.740673 18.6531 0.527222Z" fill="url(#paint10_linear)"/>
<path d="M28.5912 6.17675C28.5912 6.65291 28.2052 7.03891 27.729 7.03891C27.2529 7.03891 26.8669 6.65291 26.8669 6.17675C26.8669 5.70059 27.2529 5.31459 27.729 5.31459C28.2052 5.31459 28.5912 5.70059 28.5912 6.17675Z" fill="#375FE9"/>
<path d="M28.5912 6.17675C28.5912 6.65291 28.2052 7.03891 27.729 7.03891C27.2529 7.03891 26.8669 6.65291 26.8669 6.17675C26.8669 5.70059 27.2529 5.31459 27.729 5.31459C28.2052 5.31459 28.5912 5.70059 28.5912 6.17675Z" fill="url(#paint11_linear)"/>
</g>
<path d="M3.91356 16.8161C3.91356 19.3438 4.89499 21.1705 6.32374 22.3817C8.80971 24.4891 12.6277 24.8029 15.5427 23.4412C15.4187 23.4483 15.2938 23.4518 15.168 23.4518C11.5315 23.4518 8.58345 20.4809 8.58345 16.8161L8.58346 8.76132C8.58346 8.24549 8.1653 7.82734 7.64948 7.82734C5.58619 7.82734 3.91356 9.49996 3.91356 11.5633V16.8161Z" fill="#EC3466"/>
<path d="M3.91356 16.8161C3.91356 19.3438 4.89499 21.1705 6.32374 22.3817C8.80971 24.4891 12.6277 24.8029 15.5427 23.4412C15.4187 23.4483 15.2938 23.4518 15.168 23.4518C11.5315 23.4518 8.58345 20.4809 8.58345 16.8161L8.58346 8.76132C8.58346 8.24549 8.1653 7.82734 7.64948 7.82734C5.58619 7.82734 3.91356 9.49996 3.91356 11.5633V16.8161Z" fill="#375FE9"/>
<path d="M3.91356 16.8161C3.91356 19.3438 4.89499 21.1705 6.32374 22.3817C8.80971 24.4891 12.6277 24.8029 15.5427 23.4412C15.4187 23.4483 15.2938 23.4518 15.168 23.4518C11.5315 23.4518 8.58345 20.4809 8.58345 16.8161L8.58346 8.76132C8.58346 8.24549 8.1653 7.82734 7.64948 7.82734C5.58619 7.82734 3.91356 9.49996 3.91356 11.5633V16.8161Z" fill="url(#paint12_linear)"/>
<path d="M6.14389 23.5944C8.1959 26.3645 11.4742 28.158 15.1682 28.158C21.3839 28.158 26.4227 23.08 26.4227 16.8161V8.76131C26.4227 8.24549 26.0045 7.82734 25.4887 7.82734C23.4254 7.82734 21.7528 9.49996 21.7528 11.5633V16.8161C21.7528 24.4663 11.8268 27.6818 6.14389 23.5944Z" fill="#19224D"/>
<path d="M6.14389 23.5944C8.1959 26.3645 11.4742 28.158 15.1682 28.158C21.3839 28.158 26.4227 23.08 26.4227 16.8161V8.76131C26.4227 8.24549 26.0045 7.82734 25.4887 7.82734C23.4254 7.82734 21.7528 9.49996 21.7528 11.5633V16.8161C21.7528 24.4663 11.8268 27.6818 6.14389 23.5944Z" fill="#375FE9"/>
<path d="M6.14389 23.5944C8.1959 26.3645 11.4742 28.158 15.1682 28.158C21.3839 28.158 26.4227 23.08 26.4227 16.8161V8.76131C26.4227 8.24549 26.0045 7.82734 25.4887 7.82734C23.4254 7.82734 21.7528 9.49996 21.7528 11.5633V16.8161C21.7528 24.4663 11.8268 27.6818 6.14389 23.5944Z" fill="url(#paint13_linear)"/>
<path d="M52.2616 8.17778H55.546V18.1908C55.546 19.3151 55.2754 20.2988 54.7343 21.1421C54.1982 21.9852 53.4474 22.6427 52.4816 23.1145C51.5158 23.5813 50.3906 23.8147 49.1062 23.8147C47.8168 23.8147 46.6893 23.5813 45.7235 23.1145C44.7577 22.6427 44.0066 21.9852 43.4708 21.1421C42.9347 20.2988 42.6667 19.3151 42.6667 18.1908V8.17778H45.951V17.9123C45.951 18.4995 46.0799 19.0215 46.338 19.4782C46.6007 19.935 46.9699 20.2938 47.4451 20.5548C47.9207 20.8158 48.4743 20.9463 49.1062 20.9463C49.7434 20.9463 50.2973 20.8158 50.7676 20.5548C51.2428 20.2938 51.6095 19.935 51.8672 19.4782C52.1303 19.0215 52.2616 18.4995 52.2616 17.9123V8.17778Z" fill="#375FE9"/>
<path d="M52.2616 8.17778H55.546V18.1908C55.546 19.3151 55.2754 20.2988 54.7343 21.1421C54.1982 21.9852 53.4474 22.6427 52.4816 23.1145C51.5158 23.5813 50.3906 23.8147 49.1062 23.8147C47.8168 23.8147 46.6893 23.5813 45.7235 23.1145C44.7577 22.6427 44.0066 21.9852 43.4708 21.1421C42.9347 20.2988 42.6667 19.3151 42.6667 18.1908V8.17778H45.951V17.9123C45.951 18.4995 46.0799 19.0215 46.338 19.4782C46.6007 19.935 46.9699 20.2938 47.4451 20.5548C47.9207 20.8158 48.4743 20.9463 49.1062 20.9463C49.7434 20.9463 50.2973 20.8158 50.7676 20.5548C51.2428 20.2938 51.6095 19.935 51.8672 19.4782C52.1303 19.0215 52.2616 18.4995 52.2616 17.9123V8.17778Z" fill="url(#paint14_linear)"/>
<path d="M61.4186 16.9109V23.5963H58.1873V12.0324H61.2669V14.0726H61.4033C61.6614 13.4 62.0935 12.868 62.7005 12.4765C63.3071 12.0801 64.0429 11.8818 64.9076 11.8818C65.7168 11.8818 66.422 12.0574 67.024 12.4088C67.6256 12.7601 68.0934 13.262 68.4269 13.9145C68.7609 14.562 68.9278 15.3349 68.9278 16.2333V23.5963H65.6965V16.8055C65.7015 16.0978 65.5196 15.5457 65.1504 15.1492C64.7813 14.7477 64.2729 14.5469 63.6257 14.5469C63.1907 14.5469 62.8066 14.6398 62.4727 14.8255C62.1441 15.0112 61.8863 15.2822 61.6991 15.6386C61.5172 15.9899 61.4236 16.414 61.4186 16.9109Z" fill="#375FE9"/>
<path d="M61.4186 16.9109V23.5963H58.1873V12.0324H61.2669V14.0726H61.4033C61.6614 13.4 62.0935 12.868 62.7005 12.4765C63.3071 12.0801 64.0429 11.8818 64.9076 11.8818C65.7168 11.8818 66.422 12.0574 67.024 12.4088C67.6256 12.7601 68.0934 13.262 68.4269 13.9145C68.7609 14.562 68.9278 15.3349 68.9278 16.2333V23.5963H65.6965V16.8055C65.7015 16.0978 65.5196 15.5457 65.1504 15.1492C64.7813 14.7477 64.2729 14.5469 63.6257 14.5469C63.1907 14.5469 62.8066 14.6398 62.4727 14.8255C62.1441 15.0112 61.8863 15.2822 61.6991 15.6386C61.5172 15.9899 61.4236 16.414 61.4186 16.9109Z" fill="url(#paint15_linear)"/>
<path d="M75.7675 23.7846C74.8825 23.7846 74.0812 23.5587 73.3632 23.107C72.6501 22.6503 72.0837 21.9802 71.664 21.0969C71.2493 20.2085 71.0421 19.1193 71.0421 17.8295C71.0421 16.5044 71.2571 15.4027 71.6868 14.5244C72.1165 13.6411 72.6879 12.981 73.4009 12.5444C74.1189 12.1027 74.9053 11.8819 75.76 11.8819C76.4122 11.8819 76.9558 11.9923 77.3908 12.2131C77.8305 12.4289 78.1847 12.7 78.4527 13.0262C78.7258 13.3474 78.933 13.6636 79.0747 13.9748H79.1733V8.17778H82.3968V23.5964H79.211V21.7443H79.0747C78.923 22.0656 78.708 22.3843 78.43 22.7005C78.1569 23.0117 77.8002 23.2701 77.3602 23.4759C76.9255 23.6817 76.3944 23.7846 75.7675 23.7846ZM76.7913 21.2324C77.3122 21.2324 77.7522 21.0918 78.1113 20.8108C78.4755 20.5247 78.7536 20.1257 78.9458 19.6137C79.143 19.1018 79.2413 18.502 79.2413 17.8144C79.2413 17.1268 79.1455 16.5295 78.9533 16.0226C78.761 15.5157 78.483 15.1242 78.1188 14.8481C77.7547 14.5721 77.3122 14.4341 76.7913 14.4341C76.2606 14.4341 75.8131 14.5771 75.4489 14.8632C75.0847 15.1493 74.8092 15.5458 74.6223 16.0527C74.4351 16.5596 74.3414 17.1468 74.3414 17.8144C74.3414 18.487 74.4351 19.0817 74.6223 19.5987C74.8142 20.1106 75.0901 20.5122 75.4489 20.8033C75.8131 21.0893 76.2606 21.2324 76.7913 21.2324Z" fill="#375FE9"/>
<path d="M75.7675 23.7846C74.8825 23.7846 74.0812 23.5587 73.3632 23.107C72.6501 22.6503 72.0837 21.9802 71.664 21.0969C71.2493 20.2085 71.0421 19.1193 71.0421 17.8295C71.0421 16.5044 71.2571 15.4027 71.6868 14.5244C72.1165 13.6411 72.6879 12.981 73.4009 12.5444C74.1189 12.1027 74.9053 11.8819 75.76 11.8819C76.4122 11.8819 76.9558 11.9923 77.3908 12.2131C77.8305 12.4289 78.1847 12.7 78.4527 13.0262C78.7258 13.3474 78.933 13.6636 79.0747 13.9748H79.1733V8.17778H82.3968V23.5964H79.211V21.7443H79.0747C78.923 22.0656 78.708 22.3843 78.43 22.7005C78.1569 23.0117 77.8002 23.2701 77.3602 23.4759C76.9255 23.6817 76.3944 23.7846 75.7675 23.7846ZM76.7913 21.2324C77.3122 21.2324 77.7522 21.0918 78.1113 20.8108C78.4755 20.5247 78.7536 20.1257 78.9458 19.6137C79.143 19.1018 79.2413 18.502 79.2413 17.8144C79.2413 17.1268 79.1455 16.5295 78.9533 16.0226C78.761 15.5157 78.483 15.1242 78.1188 14.8481C77.7547 14.5721 77.3122 14.4341 76.7913 14.4341C76.2606 14.4341 75.8131 14.5771 75.4489 14.8632C75.0847 15.1493 74.8092 15.5458 74.6223 16.0527C74.4351 16.5596 74.3414 17.1468 74.3414 17.8144C74.3414 18.487 74.4351 19.0817 74.6223 19.5987C74.8142 20.1106 75.0901 20.5122 75.4489 20.8033C75.8131 21.0893 76.2606 21.2324 76.7913 21.2324Z" fill="url(#paint16_linear)"/>
<path d="M90.3632 23.8222C89.1646 23.8222 88.1329 23.5813 87.2682 23.0994C86.4089 22.6126 85.7464 21.925 85.2811 21.0366C84.8158 20.1432 84.5833 19.0867 84.5833 17.867C84.5833 16.6775 84.8158 15.6336 85.2811 14.7351C85.7464 13.8367 86.401 13.1366 87.2458 12.6347C88.0952 12.1327 89.0912 11.8818 90.234 11.8818C91.0025 11.8818 91.7181 12.0048 92.3806 12.2507C93.048 12.4916 93.6297 12.8555 94.1253 13.3423C94.6258 13.8292 95.0152 14.4415 95.2933 15.1793C95.5713 15.9121 95.7105 16.7704 95.7105 17.7541V18.635H85.8727V16.6474H92.6689C92.6689 16.1857 92.5678 15.7766 92.3656 15.4202C92.1631 15.0639 91.8825 14.7853 91.5237 14.5845C91.1695 14.3788 90.7576 14.2759 90.2874 14.2759C89.7968 14.2759 89.3618 14.3888 88.9827 14.6147C88.6085 14.8355 88.3152 15.1341 88.1026 15.5106C87.8905 15.882 87.7815 16.2961 87.7766 16.7528V18.6425C87.7766 19.2146 87.8826 19.709 88.0952 20.1256C88.3127 20.5422 88.6185 20.8634 89.0129 21.0893C89.4073 21.3151 89.8751 21.4281 90.4162 21.4281C90.7751 21.4281 91.104 21.3779 91.4023 21.2775C91.7006 21.1771 91.9559 21.0266 92.1684 20.8258C92.3806 20.625 92.5425 20.3791 92.6536 20.088L95.6421 20.2837C95.4905 20.9964 95.1793 21.6188 94.7091 22.1508C94.2442 22.6778 93.6422 23.0894 92.9039 23.3855C92.1709 23.6766 91.3236 23.8222 90.3632 23.8222Z" fill="#375FE9"/>
<path d="M90.3632 23.8222C89.1646 23.8222 88.1329 23.5813 87.2682 23.0994C86.4089 22.6126 85.7464 21.925 85.2811 21.0366C84.8158 20.1432 84.5833 19.0867 84.5833 17.867C84.5833 16.6775 84.8158 15.6336 85.2811 14.7351C85.7464 13.8367 86.401 13.1366 87.2458 12.6347C88.0952 12.1327 89.0912 11.8818 90.234 11.8818C91.0025 11.8818 91.7181 12.0048 92.3806 12.2507C93.048 12.4916 93.6297 12.8555 94.1253 13.3423C94.6258 13.8292 95.0152 14.4415 95.2933 15.1793C95.5713 15.9121 95.7105 16.7704 95.7105 17.7541V18.635H85.8727V16.6474H92.6689C92.6689 16.1857 92.5678 15.7766 92.3656 15.4202C92.1631 15.0639 91.8825 14.7853 91.5237 14.5845C91.1695 14.3788 90.7576 14.2759 90.2874 14.2759C89.7968 14.2759 89.3618 14.3888 88.9827 14.6147C88.6085 14.8355 88.3152 15.1341 88.1026 15.5106C87.8905 15.882 87.7815 16.2961 87.7766 16.7528V18.6425C87.7766 19.2146 87.8826 19.709 88.0952 20.1256C88.3127 20.5422 88.6185 20.8634 89.0129 21.0893C89.4073 21.3151 89.8751 21.4281 90.4162 21.4281C90.7751 21.4281 91.104 21.3779 91.4023 21.2775C91.7006 21.1771 91.9559 21.0266 92.1684 20.8258C92.3806 20.625 92.5425 20.3791 92.6536 20.088L95.6421 20.2837C95.4905 20.9964 95.1793 21.6188 94.7091 22.1508C94.2442 22.6778 93.6422 23.0894 92.9039 23.3855C92.1709 23.6766 91.3236 23.8222 90.3632 23.8222Z" fill="url(#paint17_linear)"/>
<path d="M104.016 12.0324V14.4415H96.9998V12.0324H104.016ZM98.5928 9.26184H101.824V20.0428C101.824 20.3389 101.869 20.5698 101.96 20.7354C102.051 20.896 102.178 21.009 102.34 21.0742C102.507 21.1395 102.699 21.1721 102.916 21.1721C103.068 21.1721 103.22 21.1596 103.371 21.1345C103.523 21.1043 103.639 21.0817 103.72 21.0667L104.228 23.4533C104.067 23.5034 103.839 23.5612 103.546 23.6264C103.252 23.6967 102.896 23.7393 102.476 23.7544C101.697 23.7845 101.015 23.6816 100.428 23.4457C99.8466 23.2098 99.3941 22.8434 99.0706 22.3465C98.747 21.8497 98.5875 21.2223 98.5928 20.4644V9.26184Z" fill="#375FE9"/>
<path d="M104.016 12.0324V14.4415H96.9998V12.0324H104.016ZM98.5928 9.26184H101.824V20.0428C101.824 20.3389 101.869 20.5698 101.96 20.7354C102.051 20.896 102.178 21.009 102.34 21.0742C102.507 21.1395 102.699 21.1721 102.916 21.1721C103.068 21.1721 103.22 21.1596 103.371 21.1345C103.523 21.1043 103.639 21.0817 103.72 21.0667L104.228 23.4533C104.067 23.5034 103.839 23.5612 103.546 23.6264C103.252 23.6967 102.896 23.7393 102.476 23.7544C101.697 23.7845 101.015 23.6816 100.428 23.4457C99.8466 23.2098 99.3941 22.8434 99.0706 22.3465C98.747 21.8497 98.5875 21.2223 98.5928 20.4644V9.26184Z" fill="url(#paint18_linear)"/>
<path d="M111.305 23.8222C110.107 23.8222 109.075 23.5813 108.21 23.0994C107.351 22.6126 106.688 21.925 106.223 21.0366C105.758 20.1432 105.525 19.0867 105.525 17.867C105.525 16.6775 105.758 15.6336 106.223 14.7351C106.688 13.8367 107.343 13.1366 108.188 12.6347C109.037 12.1327 110.033 11.8818 111.176 11.8818C111.945 11.8818 112.66 12.0048 113.323 12.2507C113.99 12.4916 114.572 12.8555 115.067 13.3423C115.568 13.8292 115.957 14.4415 116.235 15.1793C116.513 15.9121 116.652 16.7704 116.652 17.7541V18.635H106.815V16.6474H113.611C113.611 16.1857 113.51 15.7766 113.308 15.4202C113.105 15.0639 112.824 14.7853 112.466 14.5845C112.111 14.3788 111.7 14.2759 111.229 14.2759C110.739 14.2759 110.304 14.3888 109.925 14.6147C109.55 14.8355 109.257 15.1341 109.045 15.5106C108.832 15.882 108.723 16.2961 108.718 16.7528V18.6425C108.718 19.2146 108.825 19.709 109.037 20.1256C109.255 20.5422 109.56 20.8634 109.955 21.0893C110.349 21.3151 110.817 21.4281 111.358 21.4281C111.717 21.4281 112.046 21.3779 112.344 21.2775C112.643 21.1771 112.898 21.0266 113.11 20.8258C113.323 20.625 113.484 20.3791 113.596 20.088L116.584 20.2837C116.432 20.9964 116.122 21.6188 115.651 22.1508C115.186 22.6778 114.584 23.0894 113.846 23.3855C113.113 23.6766 112.266 23.8222 111.305 23.8222Z" fill="#375FE9"/>
<path d="M111.305 23.8222C110.107 23.8222 109.075 23.5813 108.21 23.0994C107.351 22.6126 106.688 21.925 106.223 21.0366C105.758 20.1432 105.525 19.0867 105.525 17.867C105.525 16.6775 105.758 15.6336 106.223 14.7351C106.688 13.8367 107.343 13.1366 108.188 12.6347C109.037 12.1327 110.033 11.8818 111.176 11.8818C111.945 11.8818 112.66 12.0048 113.323 12.2507C113.99 12.4916 114.572 12.8555 115.067 13.3423C115.568 13.8292 115.957 14.4415 116.235 15.1793C116.513 15.9121 116.652 16.7704 116.652 17.7541V18.635H106.815V16.6474H113.611C113.611 16.1857 113.51 15.7766 113.308 15.4202C113.105 15.0639 112.824 14.7853 112.466 14.5845C112.111 14.3788 111.7 14.2759 111.229 14.2759C110.739 14.2759 110.304 14.3888 109.925 14.6147C109.55 14.8355 109.257 15.1341 109.045 15.5106C108.832 15.882 108.723 16.2961 108.718 16.7528V18.6425C108.718 19.2146 108.825 19.709 109.037 20.1256C109.255 20.5422 109.56 20.8634 109.955 21.0893C110.349 21.3151 110.817 21.4281 111.358 21.4281C111.717 21.4281 112.046 21.3779 112.344 21.2775C112.643 21.1771 112.898 21.0266 113.11 20.8258C113.323 20.625 113.484 20.3791 113.596 20.088L116.584 20.2837C116.432 20.9964 116.122 21.6188 115.651 22.1508C115.186 22.6778 114.584 23.0894 113.846 23.3855C113.113 23.6766 112.266 23.8222 111.305 23.8222Z" fill="url(#paint19_linear)"/>
<path d="M124.025 23.8222C122.832 23.8222 121.805 23.5712 120.946 23.0693C120.091 22.5624 119.434 21.8597 118.973 20.9613C118.518 20.0629 118.291 19.0289 118.291 17.8595C118.291 16.675 118.521 15.6361 118.981 14.7427C119.446 13.8442 120.106 13.1441 120.961 12.6422C121.815 12.1353 122.832 11.8818 124.01 11.8818C125.026 11.8818 125.916 12.065 126.68 12.4314C127.443 12.7978 128.048 13.3122 128.493 13.9748C128.938 14.6373 129.183 15.4152 129.228 16.3086H126.179C126.093 15.7314 125.866 15.2671 125.497 14.9158C125.132 14.5595 124.655 14.3813 124.063 14.3813C123.562 14.3813 123.125 14.5168 122.751 14.7878C122.382 15.0538 122.093 15.4428 121.886 15.9548C121.679 16.4667 121.575 17.0866 121.575 17.8143C121.575 18.5521 121.676 19.1795 121.878 19.6965C122.086 20.2134 122.377 20.6075 122.751 20.8785C123.125 21.1495 123.562 21.285 124.063 21.285C124.432 21.285 124.763 21.2097 125.057 21.0592C125.355 20.9086 125.6 20.6903 125.792 20.4042C125.99 20.1131 126.118 19.7642 126.179 19.3577H129.228C129.178 20.241 128.935 21.019 128.5 21.6916C128.07 22.3591 127.476 22.8811 126.718 23.2575C125.959 23.6339 125.062 23.8222 124.025 23.8222Z" fill="#375FE9"/>
<path d="M124.025 23.8222C122.832 23.8222 121.805 23.5712 120.946 23.0693C120.091 22.5624 119.434 21.8597 118.973 20.9613C118.518 20.0629 118.291 19.0289 118.291 17.8595C118.291 16.675 118.521 15.6361 118.981 14.7427C119.446 13.8442 120.106 13.1441 120.961 12.6422C121.815 12.1353 122.832 11.8818 124.01 11.8818C125.026 11.8818 125.916 12.065 126.68 12.4314C127.443 12.7978 128.048 13.3122 128.493 13.9748C128.938 14.6373 129.183 15.4152 129.228 16.3086H126.179C126.093 15.7314 125.866 15.2671 125.497 14.9158C125.132 14.5595 124.655 14.3813 124.063 14.3813C123.562 14.3813 123.125 14.5168 122.751 14.7878C122.382 15.0538 122.093 15.4428 121.886 15.9548C121.679 16.4667 121.575 17.0866 121.575 17.8143C121.575 18.5521 121.676 19.1795 121.878 19.6965C122.086 20.2134 122.377 20.6075 122.751 20.8785C123.125 21.1495 123.562 21.285 124.063 21.285C124.432 21.285 124.763 21.2097 125.057 21.0592C125.355 20.9086 125.6 20.6903 125.792 20.4042C125.99 20.1131 126.118 19.7642 126.179 19.3577H129.228C129.178 20.241 128.935 21.019 128.5 21.6916C128.07 22.3591 127.476 22.8811 126.718 23.2575C125.959 23.6339 125.062 23.8222 124.025 23.8222Z" fill="url(#paint20_linear)"/>
<path d="M137.494 12.0324V14.4415H130.478V12.0324H137.494ZM132.071 9.26184H135.302V20.0428C135.302 20.3389 135.347 20.5698 135.439 20.7354C135.529 20.896 135.656 21.009 135.818 21.0742C135.985 21.1395 136.177 21.1721 136.394 21.1721C136.546 21.1721 136.698 21.1596 136.849 21.1345C137.001 21.1043 137.117 21.0817 137.198 21.0667L137.706 23.4533C137.545 23.5034 137.317 23.5612 137.024 23.6264C136.73 23.6967 136.374 23.7393 135.954 23.7544C135.175 23.7845 134.493 23.6816 133.906 23.4457C133.325 23.2098 132.872 22.8434 132.549 22.3465C132.225 21.8497 132.066 21.2223 132.071 20.4644V9.26184Z" fill="#375FE9"/>
<path d="M137.494 12.0324V14.4415H130.478V12.0324H137.494ZM132.071 9.26184H135.302V20.0428C135.302 20.3389 135.347 20.5698 135.439 20.7354C135.529 20.896 135.656 21.009 135.818 21.0742C135.985 21.1395 136.177 21.1721 136.394 21.1721C136.546 21.1721 136.698 21.1596 136.849 21.1345C137.001 21.1043 137.117 21.0817 137.198 21.0667L137.706 23.4533C137.545 23.5034 137.317 23.5612 137.024 23.6264C136.73 23.6967 136.374 23.7393 135.954 23.7544C135.175 23.7845 134.493 23.6816 133.906 23.4457C133.325 23.2098 132.872 22.8434 132.549 22.3465C132.225 21.8497 132.066 21.2223 132.071 20.4644V9.26184Z" fill="url(#paint21_linear)"/>
<path d="M142.921 23.8146C142.178 23.8146 141.515 23.6867 140.934 23.4307C140.352 23.1697 139.892 22.7857 139.553 22.2788C139.22 21.7668 139.053 21.1294 139.053 20.3665C139.053 19.7241 139.172 19.1845 139.409 18.7479C139.647 18.3112 139.971 17.9599 140.38 17.6939C140.79 17.4279 141.255 17.2271 141.776 17.0916C142.302 16.9561 142.853 16.8607 143.429 16.8055C144.107 16.7352 144.653 16.67 145.068 16.6098C145.482 16.5445 145.783 16.4491 145.97 16.3237C146.157 16.1982 146.251 16.0125 146.251 15.7666V15.7214C146.251 15.2446 146.099 14.8757 145.796 14.6147C145.497 14.3537 145.073 14.2232 144.522 14.2232C143.94 14.2232 143.477 14.3512 143.133 14.6071C142.79 14.8581 142.562 15.1743 142.451 15.5557L139.462 15.3148C139.614 14.6121 139.912 14.0049 140.357 13.4929C140.802 12.976 141.376 12.5794 142.079 12.3034C142.787 12.0223 143.606 11.8818 144.537 11.8818C145.184 11.8818 145.803 11.9571 146.395 12.1077C146.992 12.2582 147.52 12.4916 147.98 12.8078C148.445 13.124 148.812 13.5306 149.08 14.0274C149.348 14.5193 149.482 15.1091 149.482 15.7967V23.5963H146.418V21.9927H146.327C146.14 22.3541 145.889 22.6728 145.576 22.9488C145.262 23.2199 144.886 23.4332 144.446 23.5888C144.006 23.7393 143.498 23.8146 142.921 23.8146ZM143.846 21.6012C144.322 21.6012 144.742 21.5084 145.106 21.3227C145.47 21.132 145.756 20.876 145.963 20.5547C146.17 20.2335 146.274 19.8696 146.274 19.4631V18.2359C146.172 18.3012 146.034 18.3614 145.857 18.4166C145.685 18.4668 145.49 18.5145 145.272 18.5597C145.055 18.5998 144.837 18.6375 144.62 18.6726C144.403 18.7027 144.206 18.7303 144.029 18.7554C143.649 18.8106 143.318 18.8984 143.035 19.0189C142.752 19.1393 142.532 19.3025 142.375 19.5083C142.218 19.709 142.14 19.96 142.14 20.2611C142.14 20.6978 142.299 21.0316 142.618 21.2624C142.941 21.4883 143.351 21.6012 143.846 21.6012Z" fill="#375FE9"/>
<path d="M142.921 23.8146C142.178 23.8146 141.515 23.6867 140.934 23.4307C140.352 23.1697 139.892 22.7857 139.553 22.2788C139.22 21.7668 139.053 21.1294 139.053 20.3665C139.053 19.7241 139.172 19.1845 139.409 18.7479C139.647 18.3112 139.971 17.9599 140.38 17.6939C140.79 17.4279 141.255 17.2271 141.776 17.0916C142.302 16.9561 142.853 16.8607 143.429 16.8055C144.107 16.7352 144.653 16.67 145.068 16.6098C145.482 16.5445 145.783 16.4491 145.97 16.3237C146.157 16.1982 146.251 16.0125 146.251 15.7666V15.7214C146.251 15.2446 146.099 14.8757 145.796 14.6147C145.497 14.3537 145.073 14.2232 144.522 14.2232C143.94 14.2232 143.477 14.3512 143.133 14.6071C142.79 14.8581 142.562 15.1743 142.451 15.5557L139.462 15.3148C139.614 14.6121 139.912 14.0049 140.357 13.4929C140.802 12.976 141.376 12.5794 142.079 12.3034C142.787 12.0223 143.606 11.8818 144.537 11.8818C145.184 11.8818 145.803 11.9571 146.395 12.1077C146.992 12.2582 147.52 12.4916 147.98 12.8078C148.445 13.124 148.812 13.5306 149.08 14.0274C149.348 14.5193 149.482 15.1091 149.482 15.7967V23.5963H146.418V21.9927H146.327C146.14 22.3541 145.889 22.6728 145.576 22.9488C145.262 23.2199 144.886 23.4332 144.446 23.5888C144.006 23.7393 143.498 23.8146 142.921 23.8146ZM143.846 21.6012C144.322 21.6012 144.742 21.5084 145.106 21.3227C145.47 21.132 145.756 20.876 145.963 20.5547C146.17 20.2335 146.274 19.8696 146.274 19.4631V18.2359C146.172 18.3012 146.034 18.3614 145.857 18.4166C145.685 18.4668 145.49 18.5145 145.272 18.5597C145.055 18.5998 144.837 18.6375 144.62 18.6726C144.403 18.7027 144.206 18.7303 144.029 18.7554C143.649 18.8106 143.318 18.8984 143.035 19.0189C142.752 19.1393 142.532 19.3025 142.375 19.5083C142.218 19.709 142.14 19.96 142.14 20.2611C142.14 20.6978 142.299 21.0316 142.618 21.2624C142.941 21.4883 143.351 21.6012 143.846 21.6012Z" fill="url(#paint22_linear)"/>
<path d="M152.05 23.5964V8.17778H155.281V13.9748H155.379C155.521 13.6636 155.726 13.3474 155.994 13.0262C156.267 12.7 156.621 12.4289 157.055 12.2131C157.495 11.9923 158.042 11.8819 158.694 11.8819C159.544 11.8819 160.327 12.1027 161.045 12.5444C161.763 12.981 162.337 13.6411 162.767 14.5244C163.197 15.4027 163.412 16.5044 163.412 17.8295C163.412 19.1193 163.202 20.2085 162.782 21.0969C162.368 21.9802 161.801 22.6503 161.083 23.107C160.37 23.5587 159.571 23.7846 158.686 23.7846C158.059 23.7846 157.526 23.6817 157.086 23.4759C156.651 23.2701 156.294 23.0117 156.016 22.7005C155.738 22.3843 155.526 22.0656 155.379 21.7443H155.235V23.5964H152.05ZM155.213 17.8144C155.213 18.502 155.308 19.1018 155.501 19.6137C155.693 20.1257 155.971 20.5247 156.335 20.8108C156.699 21.0918 157.142 21.2324 157.662 21.2324C158.188 21.2324 158.633 21.0893 158.997 20.8033C159.361 20.5122 159.637 20.1106 159.824 19.5987C160.016 19.0817 160.112 18.487 160.112 17.8144C160.112 17.1468 160.019 16.5596 159.831 16.0527C159.645 15.5458 159.369 15.1493 159.005 14.8632C158.641 14.5771 158.193 14.4341 157.662 14.4341C157.136 14.4341 156.691 14.5721 156.327 14.8481C155.968 15.1242 155.693 15.5157 155.501 16.0226C155.308 16.5295 155.213 17.1268 155.213 17.8144Z" fill="#375FE9"/>
<path d="M152.05 23.5964V8.17778H155.281V13.9748H155.379C155.521 13.6636 155.726 13.3474 155.994 13.0262C156.267 12.7 156.621 12.4289 157.055 12.2131C157.495 11.9923 158.042 11.8819 158.694 11.8819C159.544 11.8819 160.327 12.1027 161.045 12.5444C161.763 12.981 162.337 13.6411 162.767 14.5244C163.197 15.4027 163.412 16.5044 163.412 17.8295C163.412 19.1193 163.202 20.2085 162.782 21.0969C162.368 21.9802 161.801 22.6503 161.083 23.107C160.37 23.5587 159.571 23.7846 158.686 23.7846C158.059 23.7846 157.526 23.6817 157.086 23.4759C156.651 23.2701 156.294 23.0117 156.016 22.7005C155.738 22.3843 155.526 22.0656 155.379 21.7443H155.235V23.5964H152.05ZM155.213 17.8144C155.213 18.502 155.308 19.1018 155.501 19.6137C155.693 20.1257 155.971 20.5247 156.335 20.8108C156.699 21.0918 157.142 21.2324 157.662 21.2324C158.188 21.2324 158.633 21.0893 158.997 20.8033C159.361 20.5122 159.637 20.1106 159.824 19.5987C160.016 19.0817 160.112 18.487 160.112 17.8144C160.112 17.1468 160.019 16.5596 159.831 16.0527C159.645 15.5458 159.369 15.1493 159.005 14.8632C158.641 14.5771 158.193 14.4341 157.662 14.4341C157.136 14.4341 156.691 14.5721 156.327 14.8481C155.968 15.1242 155.693 15.5157 155.501 16.0226C155.308 16.5295 155.213 17.1268 155.213 17.8144Z" fill="url(#paint23_linear)"/>
<path d="M168.799 8.17778V23.5964H165.568V8.17778H168.799Z" fill="#375FE9"/>
<path d="M168.799 8.17778V23.5964H165.568V8.17778H168.799Z" fill="url(#paint24_linear)"/>
<path d="M176.697 23.8222C175.499 23.8222 174.467 23.5813 173.602 23.0994C172.743 22.6126 172.08 21.925 171.615 21.0366C171.15 20.1432 170.917 19.0867 170.917 17.867C170.917 16.6775 171.15 15.6336 171.615 14.7351C172.08 13.8367 172.735 13.1366 173.58 12.6347C174.429 12.1327 175.426 11.8818 176.568 11.8818C177.337 11.8818 178.052 12.0048 178.715 12.2507C179.382 12.4916 179.964 12.8555 180.459 13.3423C180.96 13.8292 181.349 14.4415 181.628 15.1793C181.906 15.9121 182.044 16.7704 182.044 17.7541V18.635H172.207V16.6474H179.003C179.003 16.1857 178.902 15.7766 178.7 15.4202C178.497 15.0639 178.217 14.7853 177.858 14.5845C177.504 14.3788 177.092 14.2759 176.621 14.2759C176.131 14.2759 175.696 14.3888 175.317 14.6147C174.942 14.8355 174.649 15.1341 174.437 15.5106C174.224 15.882 174.116 16.2961 174.111 16.7528V18.6425C174.111 19.2146 174.217 19.709 174.429 20.1256C174.647 20.5422 174.953 20.8634 175.347 21.0893C175.741 21.3151 176.209 21.4281 176.75 21.4281C177.109 21.4281 177.438 21.3779 177.736 21.2775C178.035 21.1771 178.29 21.0266 178.502 20.8258C178.715 20.625 178.876 20.3791 178.988 20.088L181.976 20.2837C181.825 20.9964 181.514 21.6188 181.043 22.1508C180.578 22.6778 179.976 23.0894 179.238 23.3855C178.505 23.6766 177.658 23.8222 176.697 23.8222Z" fill="#375FE9"/>
<path d="M176.697 23.8222C175.499 23.8222 174.467 23.5813 173.602 23.0994C172.743 22.6126 172.08 21.925 171.615 21.0366C171.15 20.1432 170.917 19.0867 170.917 17.867C170.917 16.6775 171.15 15.6336 171.615 14.7351C172.08 13.8367 172.735 13.1366 173.58 12.6347C174.429 12.1327 175.426 11.8818 176.568 11.8818C177.337 11.8818 178.052 12.0048 178.715 12.2507C179.382 12.4916 179.964 12.8555 180.459 13.3423C180.96 13.8292 181.349 14.4415 181.628 15.1793C181.906 15.9121 182.044 16.7704 182.044 17.7541V18.635H172.207V16.6474H179.003C179.003 16.1857 178.902 15.7766 178.7 15.4202C178.497 15.0639 178.217 14.7853 177.858 14.5845C177.504 14.3788 177.092 14.2759 176.621 14.2759C176.131 14.2759 175.696 14.3888 175.317 14.6147C174.942 14.8355 174.649 15.1341 174.437 15.5106C174.224 15.882 174.116 16.2961 174.111 16.7528V18.6425C174.111 19.2146 174.217 19.709 174.429 20.1256C174.647 20.5422 174.953 20.8634 175.347 21.0893C175.741 21.3151 176.209 21.4281 176.75 21.4281C177.109 21.4281 177.438 21.3779 177.736 21.2775C178.035 21.1771 178.29 21.0266 178.502 20.8258C178.715 20.625 178.876 20.3791 178.988 20.088L181.976 20.2837C181.825 20.9964 181.514 21.6188 181.043 22.1508C180.578 22.6778 179.976 23.0894 179.238 23.3855C178.505 23.6766 177.658 23.8222 176.697 23.8222Z" fill="url(#paint25_linear)"/>
<defs>
<linearGradient id="paint0_linear" x1="30.5976" y1="-1.23312e-05" x2="-5.69063e-06" y2="31.665" gradientUnits="userSpaceOnUse">
<stop offset="0.131785" stop-color="#EC3466"/>
<stop offset="0.858386" stop-color="#EC3466" stop-opacity="0"/>
</linearGradient>
<linearGradient id="paint1_linear" x1="30.5976" y1="-1.23312e-05" x2="-5.69063e-06" y2="31.665" gradientUnits="userSpaceOnUse">
<stop offset="0.131785" stop-color="#EC3466"/>
<stop offset="0.858386" stop-color="#EC3466" stop-opacity="0"/>
</linearGradient>
<linearGradient id="paint2_linear" x1="30.5976" y1="-1.23312e-05" x2="-5.69063e-06" y2="31.665" gradientUnits="userSpaceOnUse">
<stop offset="0.131785" stop-color="#EC3466"/>
<stop offset="0.858386" stop-color="#EC3466" stop-opacity="0"/>
</linearGradient>
<linearGradient id="paint3_linear" x1="30.5976" y1="-1.23312e-05" x2="-5.69063e-06" y2="31.665" gradientUnits="userSpaceOnUse">
<stop offset="0.131785" stop-color="#EC3466"/>
<stop offset="0.858386" stop-color="#EC3466" stop-opacity="0"/>
</linearGradient>
<linearGradient id="paint4_linear" x1="30.5976" y1="-1.23312e-05" x2="-5.69063e-06" y2="31.665" gradientUnits="userSpaceOnUse">
<stop offset="0.131785" stop-color="#EC3466"/>
<stop offset="0.858386" stop-color="#EC3466" stop-opacity="0"/>
</linearGradient>
<linearGradient id="paint5_linear" x1="30.5976" y1="-1.23312e-05" x2="-5.69063e-06" y2="31.665" gradientUnits="userSpaceOnUse">
<stop offset="0.131785" stop-color="#EC3466"/>
<stop offset="0.858386" stop-color="#EC3466" stop-opacity="0"/>
</linearGradient>
<linearGradient id="paint6_linear" x1="30.5976" y1="-1.23312e-05" x2="-5.69063e-06" y2="31.665" gradientUnits="userSpaceOnUse">
<stop offset="0.131785" stop-color="#EC3466"/>
<stop offset="0.858386" stop-color="#EC3466" stop-opacity="0"/>
</linearGradient>
<linearGradient id="paint7_linear" x1="30.5976" y1="-1.23312e-05" x2="-5.69063e-06" y2="31.665" gradientUnits="userSpaceOnUse">
<stop offset="0.131785" stop-color="#EC3466"/>
<stop offset="0.858386" stop-color="#EC3466" stop-opacity="0"/>
</linearGradient>
<linearGradient id="paint8_linear" x1="30.5976" y1="-1.23312e-05" x2="-5.69063e-06" y2="31.665" gradientUnits="userSpaceOnUse">
<stop offset="0.131785" stop-color="#EC3466"/>
<stop offset="0.858386" stop-color="#EC3466" stop-opacity="0"/>
</linearGradient>
<linearGradient id="paint9_linear" x1="30.5976" y1="-1.23312e-05" x2="-5.69063e-06" y2="31.665" gradientUnits="userSpaceOnUse">
<stop offset="0.131785" stop-color="#EC3466"/>
<stop offset="0.858386" stop-color="#EC3466" stop-opacity="0"/>
</linearGradient>
<linearGradient id="paint10_linear" x1="30.5976" y1="-1.23312e-05" x2="-5.69063e-06" y2="31.665" gradientUnits="userSpaceOnUse">
<stop offset="0.131785" stop-color="#EC3466"/>
<stop offset="0.858386" stop-color="#EC3466" stop-opacity="0"/>
</linearGradient>
<linearGradient id="paint11_linear" x1="30.5976" y1="-1.23312e-05" x2="-5.69063e-06" y2="31.665" gradientUnits="userSpaceOnUse">
<stop offset="0.131785" stop-color="#EC3466"/>
<stop offset="0.858386" stop-color="#EC3466" stop-opacity="0"/>
</linearGradient>
<linearGradient id="paint12_linear" x1="15.4889" y1="7.82734" x2="2.60669" y2="18.2308" gradientUnits="userSpaceOnUse">
<stop stop-color="#EC3466" stop-opacity="0"/>
<stop offset="1" stop-color="#EC3466"/>
</linearGradient>
<linearGradient id="paint13_linear" x1="26.3287" y1="7.82734" x2="10.1651" y2="26.2296" gradientUnits="userSpaceOnUse">
<stop stop-color="#EC3466"/>
<stop offset="1" stop-color="#EC3466" stop-opacity="0"/>
</linearGradient>
<linearGradient id="paint14_linear" x1="182.932" y1="16.1763" x2="41.2484" y2="16.1763" gradientUnits="userSpaceOnUse">
<stop stop-color="#EC3466"/>
<stop offset="1" stop-color="#EC3466" stop-opacity="0"/>
</linearGradient>
<linearGradient id="paint15_linear" x1="182.932" y1="16.1762" x2="41.2482" y2="16.1762" gradientUnits="userSpaceOnUse">
<stop stop-color="#EC3466"/>
<stop offset="1" stop-color="#EC3466" stop-opacity="0"/>
</linearGradient>
<linearGradient id="paint16_linear" x1="182.932" y1="16.1763" x2="41.2483" y2="16.1763" gradientUnits="userSpaceOnUse">
<stop stop-color="#EC3466"/>
<stop offset="1" stop-color="#EC3466" stop-opacity="0"/>
</linearGradient>
<linearGradient id="paint17_linear" x1="182.932" y1="16.1762" x2="41.2485" y2="16.1762" gradientUnits="userSpaceOnUse">
<stop stop-color="#EC3466"/>
<stop offset="1" stop-color="#EC3466" stop-opacity="0"/>
</linearGradient>
<linearGradient id="paint18_linear" x1="182.932" y1="16.1762" x2="41.2481" y2="16.1762" gradientUnits="userSpaceOnUse">
<stop stop-color="#EC3466"/>
<stop offset="1" stop-color="#EC3466" stop-opacity="0"/>
</linearGradient>
<linearGradient id="paint19_linear" x1="182.932" y1="16.1762" x2="41.2482" y2="16.1762" gradientUnits="userSpaceOnUse">
<stop stop-color="#EC3466"/>
<stop offset="1" stop-color="#EC3466" stop-opacity="0"/>
</linearGradient>
<linearGradient id="paint20_linear" x1="182.932" y1="16.1762" x2="41.2483" y2="16.1762" gradientUnits="userSpaceOnUse">
<stop stop-color="#EC3466"/>
<stop offset="1" stop-color="#EC3466" stop-opacity="0"/>
</linearGradient>
<linearGradient id="paint21_linear" x1="182.932" y1="16.1762" x2="41.2479" y2="16.1762" gradientUnits="userSpaceOnUse">
<stop stop-color="#EC3466"/>
<stop offset="1" stop-color="#EC3466" stop-opacity="0"/>
</linearGradient>
<linearGradient id="paint22_linear" x1="182.932" y1="16.1762" x2="41.248" y2="16.1762" gradientUnits="userSpaceOnUse">
<stop stop-color="#EC3466"/>
<stop offset="1" stop-color="#EC3466" stop-opacity="0"/>
</linearGradient>
<linearGradient id="paint23_linear" x1="182.932" y1="16.1763" x2="41.2478" y2="16.1763" gradientUnits="userSpaceOnUse">
<stop stop-color="#EC3466"/>
<stop offset="1" stop-color="#EC3466" stop-opacity="0"/>
</linearGradient>
<linearGradient id="paint24_linear" x1="182.932" y1="16.1763" x2="41.2481" y2="16.1763" gradientUnits="userSpaceOnUse">
<stop stop-color="#EC3466"/>
<stop offset="1" stop-color="#EC3466" stop-opacity="0"/>
</linearGradient>
<linearGradient id="paint25_linear" x1="182.932" y1="16.1762" x2="41.2481" y2="16.1762" gradientUnits="userSpaceOnUse">
<stop stop-color="#EC3466"/>
<stop offset="1" stop-color="#EC3466" stop-opacity="0"/>
</linearGradient>
</defs>
</svg>
