<svg width="515" height="90" viewBox="0 0 515 90" fill="none" xmlns="http://www.w3.org/2000/svg">
<g opacity="0.7">
<path d="M43.6939 0.217954C42.5093 -0.332334 41.0781 0.197137 40.5284 1.38157C32.9503 17.4861 29.8747 34.3459 33.383 52.9618C33.7814 53.8772 34.7531 54.4543 35.6891 54.3533C35.9861 54.3326 36.2441 54.2669 36.5471 54.1622C37.7264 53.6145 38.2942 52.1781 37.7459 50.9985C34.9265 34.7501 38.1135 17.7641 44.898 3.42932C45.4087 2.19985 44.8786 0.768241 43.6939 0.217954Z" fill="#18214D"/>
<path d="M45.8686 16.1675C42.8898 26.4635 41.7017 37.1004 42.3554 47.9554C42.4266 49.3115 43.581 50.2817 44.898 50.1661C46.254 50.0956 47.2236 48.9416 47.1074 47.6245C46.4953 37.3636 47.6082 27.1856 50.4606 17.4715C50.8484 16.1909 50.0992 14.87 48.8185 14.4816C47.5767 14.1383 46.2564 14.8869 45.8686 16.1675Z" fill="#18214D"/>
<path d="M63.9654 4.36235C62.6787 3.6351 61.0407 4.12497 60.3945 5.45417C56.8603 12.7232 51.2389 26.1862 52.5312 47.3423L52.5702 47.3873C52.6918 49.8025 51.7276 52.0545 49.7977 53.6455C47.9069 55.2815 45.4557 55.9058 43.0891 55.3543C41.8024 55.0499 40.521 55.8435 40.2562 57.1753C39.9525 58.462 40.7467 59.7439 42.0785 60.0093C43.2423 60.2625 44.4182 60.3478 45.5611 60.304C48.2341 60.1179 50.7995 59.0797 52.9545 57.2939C56.0098 54.7292 57.6319 50.9629 57.3672 47.0175C57.3672 47.0175 57.3282 46.9725 57.3732 46.9335C56.1829 27.0909 61.3816 14.5966 64.9649 7.93211C65.6475 6.66266 65.2202 5.07156 63.9654 4.36235Z" fill="#18214D"/>
<path d="M31.9412 2.17544C30.6756 1.68143 29.2466 2.30592 28.7481 3.56977C26.7939 7.75807 25.636 12.0078 25.0149 16.8158C24.8409 18.1626 25.8019 19.3247 27.1182 19.448C28.4647 19.6226 29.6261 18.662 29.7488 17.3454C30.5185 13.0084 31.5483 10.403 33.364 5.23954C33.7988 4.00321 33.162 2.65197 31.9412 2.17544Z" fill="#18214D"/>
<path d="M11.6534 69.1154C10.6103 69.9162 10.3818 71.4241 11.1832 72.4677C12.9845 74.8579 15.045 77.0899 17.3275 79.0359C17.8156 79.4769 18.4821 79.6723 19.1586 79.6152C19.751 79.5548 20.3096 79.2823 20.7504 78.7943C21.6319 77.8184 21.5238 76.297 20.5475 75.4149C18.5511 73.6911 16.6927 71.6779 15.09 69.5907C14.2045 68.5437 12.6966 68.3145 11.6534 69.1154Z" fill="#18214D"/>
<path d="M77.6879 69.655C76.6403 68.8478 75.1235 69.0058 74.3167 70.0529C63.7468 83.4123 43.9685 88.1185 28.3087 80.8946C27.0911 80.3388 25.6981 80.8766 25.143 82.0939C24.5878 83.3112 25.1263 84.7044 26.3439 85.2602C43.8327 93.2433 66.1471 88.1221 78.1298 72.9845C78.8941 71.9792 78.7354 70.4623 77.6879 69.655Z" fill="#18214D"/>
<path d="M6.94434 23.8918C5.86588 23.7848 4.84681 24.4197 4.52075 25.4533C1.14778 36.145 0.969834 50.4802 5.14635 62.2977C5.52191 63.284 6.41891 63.8741 7.39547 63.8802C7.69318 63.8784 7.95486 63.8292 8.1805 63.7326C9.42818 63.3082 10.086 61.9107 9.66112 60.6627C5.7069 49.6724 6.6515 37.722 9.04243 26.8154C9.3507 25.4091 8.37695 24.0339 6.94434 23.8918Z" fill="#18214D"/>
<path d="M83.5119 23.8918C84.5904 23.7848 85.6095 24.4197 85.9355 25.4533C89.3085 36.145 89.4864 50.4802 85.3099 62.2977C84.9344 63.284 84.0374 63.8741 83.0608 63.8802C82.7631 63.8784 82.5014 63.8292 82.2758 63.7326C81.0281 63.3082 80.3703 61.9107 80.7952 60.6627C84.7494 49.6724 83.8048 37.722 81.4138 26.8154C81.1056 25.4091 82.0793 24.0339 83.5119 23.8918Z" fill="#18214D"/>
<path d="M73.0877 9.41495C71.9176 8.81462 70.4569 9.25312 69.8564 10.4239C69.0762 11.5121 67.973 14.139 67.7134 15.6902C67.5236 16.3201 67.632 17.0061 67.973 17.5932C68.281 18.1027 68.7663 18.4911 69.3959 18.6808C70.6551 19.0602 71.9841 18.3116 72.3638 17.0518C72.7135 15.8913 73.3196 13.9369 74.128 12.7246C74.9364 11.5122 74.2578 10.0153 73.0877 9.41495Z" fill="#18214D"/>
<path d="M18.8174 8.34806C17.5709 7.92898 16.192 8.58045 15.7728 9.82766C15.1637 11.0201 14.4646 14.5905 14.4393 16.163C14.3456 16.8142 14.5552 17.4763 14.9799 18.006C15.3605 18.4639 15.8982 18.7755 16.5491 18.8692C17.8508 19.0565 19.0532 18.1181 19.2408 16.8158C19.4135 15.616 19.9218 12.9017 20.3398 11.4655C20.7579 10.0293 20.064 8.76715 18.8174 8.34806Z" fill="#18214D"/>
<path d="M54.4618 1.48281C53.2917 0.882481 51.831 1.32099 51.2305 2.49172C50.4504 3.57997 49.3471 6.20687 49.0875 7.75807C48.8977 8.38797 49.0062 9.07397 49.3471 9.66104C49.6552 10.1706 50.1405 10.559 50.7701 10.7487C52.0293 11.128 53.3582 10.3795 53.7379 9.11971C54.0877 7.95915 54.6938 6.0048 55.5022 4.79242C56.3105 3.58004 55.6319 2.08314 54.4618 1.48281Z" fill="#18214D"/>
<path d="M82.4128 17.3721C82.4128 18.7113 81.3271 19.7969 79.9879 19.7969C78.6488 19.7969 77.5631 18.7113 77.5631 17.3721C77.5631 16.0329 78.6488 14.9473 79.9879 14.9473C81.3271 14.9473 82.4128 16.0329 82.4128 17.3721Z" fill="#18214D"/>
</g>
<path d="M13.0068 47.2953C13.0068 54.4044 15.7671 59.5422 19.7855 62.9486C26.7773 68.8757 37.5152 69.7582 45.7139 65.9285C45.3651 65.9482 45.0137 65.9582 44.66 65.9582C34.4322 65.9582 26.1409 57.6026 26.1409 47.2953L26.1409 24.6412C26.1409 23.1905 24.9649 22.0144 23.5141 22.0144C17.7111 22.0144 13.0068 26.7187 13.0068 32.5217V47.2953Z" fill="#18214D"/>
<path d="M19.2795 66.3593C25.0508 74.1501 34.2711 79.1943 44.6604 79.1943C62.142 79.1943 76.3136 64.9127 76.3136 47.2953V24.6412C76.3136 23.1905 75.1375 22.0144 73.6868 22.0144C67.8838 22.0144 63.1795 26.7187 63.1795 32.5217V47.2953C63.1795 68.8114 35.2627 77.8552 19.2795 66.3593Z" fill="#18214D"/>
<path d="M146.986 23H156.223V51.1617C156.223 54.3237 155.462 57.0905 153.94 59.462C152.432 61.8335 150.321 63.6827 147.605 65.0096C144.888 66.3225 141.723 66.9788 138.111 66.9788C134.485 66.9788 131.314 66.3225 128.597 65.0096C125.881 63.6827 123.769 61.8335 122.262 59.462C120.754 57.0905 120 54.3237 120 51.1617V23H129.237V50.3782C129.237 52.0299 129.6 53.4979 130.326 54.7825C131.064 56.0671 132.103 57.0764 133.439 57.8104C134.777 58.5445 136.334 58.9115 138.111 58.9115C139.903 58.9115 141.461 58.5445 142.784 57.8104C144.12 57.0764 145.152 56.0671 145.876 54.7825C146.616 53.4979 146.986 52.0299 146.986 50.3782V23Z" fill="#18214D"/>
<path d="M146.986 23H156.223V51.1617C156.223 54.3237 155.462 57.0905 153.94 59.462C152.432 61.8335 150.321 63.6827 147.605 65.0096C144.888 66.3225 141.723 66.9788 138.111 66.9788C134.485 66.9788 131.314 66.3225 128.597 65.0096C125.881 63.6827 123.769 61.8335 122.262 59.462C120.754 57.0905 120 54.3237 120 51.1617V23H129.237V50.3782C129.237 52.0299 129.6 53.4979 130.326 54.7825C131.064 56.0671 132.103 57.0764 133.439 57.8104C134.777 58.5445 136.334 58.9115 138.111 58.9115C139.903 58.9115 141.461 58.5445 142.784 57.8104C144.12 57.0764 145.152 56.0671 145.876 54.7825C146.616 53.4979 146.986 52.0299 146.986 50.3782V23Z" fill="#18214D"/>
<path d="M172.74 47.562V66.3648H163.652V33.8412H172.313V39.5794H172.697C173.423 37.6878 174.638 36.1915 176.345 35.0904C178.051 33.9753 180.121 33.4177 182.553 33.4177C184.828 33.4177 186.812 33.9117 188.505 34.8999C190.197 35.8881 191.513 37.2996 192.451 39.1347C193.39 40.9557 193.859 43.1296 193.859 45.6564V66.3648H184.771V47.2656C184.785 45.2753 184.274 43.7225 183.235 42.6073C182.197 41.478 180.767 40.9134 178.947 40.9134C177.724 40.9134 176.643 41.1745 175.704 41.6968C174.78 42.2191 174.055 42.9814 173.529 43.9837C173.017 44.9718 172.754 46.1646 172.74 47.562Z" fill="#18214D"/>
<path d="M172.74 47.562V66.3648H163.652V33.8412H172.313V39.5794H172.697C173.423 37.6878 174.638 36.1915 176.345 35.0904C178.051 33.9753 180.121 33.4177 182.553 33.4177C184.828 33.4177 186.812 33.9117 188.505 34.8999C190.197 35.8881 191.513 37.2996 192.451 39.1347C193.39 40.9557 193.859 43.1296 193.859 45.6564V66.3648H184.771V47.2656C184.785 45.2753 184.274 43.7225 183.235 42.6073C182.197 41.478 180.767 40.9134 178.947 40.9134C177.724 40.9134 176.643 41.1745 175.704 41.6968C174.78 42.2191 174.055 42.9814 173.529 43.9837C173.017 44.9718 172.754 46.1646 172.74 47.562Z" fill="#18214D"/>
<path d="M213.096 66.8942C210.607 66.8942 208.353 66.2589 206.334 64.9884C204.328 63.7039 202.735 61.8194 201.555 59.3349C200.389 56.8364 199.806 53.7732 199.806 50.1454C199.806 46.4187 200.411 43.3202 201.619 40.8499C202.828 38.3655 204.435 36.5092 206.44 35.2811C208.459 34.0389 210.671 33.4178 213.075 33.4178C214.909 33.4178 216.438 33.7283 217.662 34.3494C218.898 34.9564 219.894 35.7186 220.648 36.6362C221.416 37.5396 221.999 38.429 222.397 39.3042H222.675V23H231.741V66.3648H222.781V61.1559H222.397C221.971 62.0594 221.366 62.9557 220.584 63.8451C219.816 64.7203 218.813 65.4472 217.576 66.026C216.353 66.6048 214.859 66.8942 213.096 66.8942ZM215.976 59.716C217.44 59.716 218.678 59.3208 219.688 58.5304C220.712 57.7257 221.494 56.6034 222.035 55.1637C222.59 53.7238 222.866 52.0369 222.866 50.1029C222.866 48.1691 222.597 46.4893 222.056 45.0635C221.515 43.6378 220.733 42.5367 219.709 41.7604C218.685 40.984 217.44 40.5958 215.976 40.5958C214.483 40.5958 213.224 40.9981 212.2 41.8027C211.176 42.6073 210.401 43.7225 209.875 45.1482C209.349 46.5739 209.085 48.2255 209.085 50.1029C209.085 51.9946 209.349 53.6673 209.875 55.1213C210.415 56.5611 211.191 57.6904 212.2 58.5092C213.224 59.3138 214.483 59.716 215.976 59.716Z" fill="#18214D"/>
<path d="M213.096 66.8942C210.607 66.8942 208.353 66.2589 206.334 64.9884C204.328 63.7039 202.735 61.8194 201.555 59.3349C200.389 56.8364 199.806 53.7732 199.806 50.1454C199.806 46.4187 200.411 43.3202 201.619 40.8499C202.828 38.3655 204.435 36.5092 206.44 35.2811C208.459 34.0389 210.671 33.4178 213.075 33.4178C214.909 33.4178 216.438 33.7283 217.662 34.3494C218.898 34.9564 219.894 35.7186 220.648 36.6362C221.416 37.5396 221.999 38.429 222.397 39.3042H222.675V23H231.741V66.3648H222.781V61.1559H222.397C221.971 62.0594 221.366 62.9557 220.584 63.8451C219.816 64.7203 218.813 65.4472 217.576 66.026C216.353 66.6048 214.859 66.8942 213.096 66.8942ZM215.976 59.716C217.44 59.716 218.678 59.3208 219.688 58.5304C220.712 57.7257 221.494 56.6034 222.035 55.1637C222.59 53.7238 222.866 52.0369 222.866 50.1029C222.866 48.1691 222.597 46.4893 222.056 45.0635C221.515 43.6378 220.733 42.5367 219.709 41.7604C218.685 40.984 217.44 40.5958 215.976 40.5958C214.483 40.5958 213.224 40.9981 212.2 41.8027C211.176 42.6073 210.401 43.7225 209.875 45.1482C209.349 46.5739 209.085 48.2255 209.085 50.1029C209.085 51.9946 209.349 53.6673 209.875 55.1213C210.415 56.5611 211.191 57.6904 212.2 58.5092C213.224 59.3138 214.483 59.716 215.976 59.716Z" fill="#18214D"/>
<path d="M254.146 67C250.775 67 247.874 66.3224 245.442 64.9672C243.025 63.598 241.162 61.6641 239.853 59.1656C238.544 56.6529 237.891 53.6814 237.891 50.2512C237.891 46.9057 238.544 43.9695 239.853 41.4428C241.162 38.9159 243.003 36.9467 245.379 35.5352C247.768 34.1235 250.569 33.4177 253.783 33.4177C255.945 33.4177 257.957 33.7636 259.82 34.4552C261.698 35.1328 263.334 36.1563 264.727 37.5255C266.135 38.8947 267.23 40.6169 268.012 42.692C268.794 44.7529 269.186 47.1668 269.186 49.9336V52.411H241.517V46.821H260.631C260.631 45.5223 260.347 44.3718 259.778 43.3696C259.209 42.3674 258.42 41.5839 257.41 41.0192C256.414 40.4404 255.256 40.1511 253.933 40.1511C252.553 40.1511 251.33 40.4687 250.264 41.1039C249.211 41.725 248.386 42.5649 247.789 43.6237C247.192 44.6683 246.886 45.8329 246.872 47.1174V52.4321C246.872 54.0414 247.17 55.4319 247.768 56.6034C248.379 57.7751 249.239 58.6785 250.349 59.3137C251.458 59.949 252.774 60.2666 254.296 60.2666C255.305 60.2666 256.23 60.1255 257.069 59.8431C257.908 59.5608 258.626 59.1373 259.224 58.5727C259.82 58.008 260.276 57.3163 260.588 56.4976L268.994 57.0481C268.567 59.0526 267.692 60.803 266.369 62.2993C265.062 63.7816 263.369 64.939 261.292 65.7719C259.231 66.5907 256.848 67 254.146 67Z" fill="#18214D"/>
<path d="M254.146 67C250.775 67 247.874 66.3224 245.442 64.9672C243.025 63.598 241.162 61.6641 239.853 59.1656C238.544 56.6529 237.891 53.6814 237.891 50.2512C237.891 46.9057 238.544 43.9695 239.853 41.4428C241.162 38.9159 243.003 36.9467 245.379 35.5352C247.768 34.1235 250.569 33.4177 253.783 33.4177C255.945 33.4177 257.957 33.7636 259.82 34.4552C261.698 35.1328 263.334 36.1563 264.727 37.5255C266.135 38.8947 267.23 40.6169 268.012 42.692C268.794 44.7529 269.186 47.1668 269.186 49.9336V52.411H241.517V46.821H260.631C260.631 45.5223 260.347 44.3718 259.778 43.3696C259.209 42.3674 258.42 41.5839 257.41 41.0192C256.414 40.4404 255.256 40.1511 253.933 40.1511C252.553 40.1511 251.33 40.4687 250.264 41.1039C249.211 41.725 248.386 42.5649 247.789 43.6237C247.192 44.6683 246.886 45.8329 246.872 47.1174V52.4321C246.872 54.0414 247.17 55.4319 247.768 56.6034C248.379 57.7751 249.239 58.6785 250.349 59.3137C251.458 59.949 252.774 60.2666 254.296 60.2666C255.305 60.2666 256.23 60.1255 257.069 59.8431C257.908 59.5608 258.626 59.1373 259.224 58.5727C259.82 58.008 260.276 57.3163 260.588 56.4976L268.994 57.0481C268.567 59.0526 267.692 60.803 266.369 62.2993C265.062 63.7816 263.369 64.939 261.292 65.7719C259.231 66.5907 256.848 67 254.146 67Z" fill="#18214D"/>
<path d="M292.545 33.8412V40.6169H272.812V33.8412H292.545ZM277.292 26.0491H286.379V56.3706C286.379 57.2034 286.507 57.8527 286.764 58.3186C287.019 58.7702 287.376 59.0878 287.83 59.2714C288.3 59.4549 288.84 59.5467 289.451 59.5467C289.879 59.5467 290.305 59.5114 290.732 59.4408C291.158 59.3561 291.486 59.2926 291.713 59.2502L293.142 65.9625C292.687 66.1036 292.047 66.266 291.222 66.4494C290.397 66.6471 289.395 66.767 288.215 66.8094C286.024 66.8941 284.104 66.6048 282.455 65.9412C280.819 65.2778 279.546 64.2473 278.636 62.8498C277.726 61.4523 277.277 59.6878 277.292 57.5562V26.0491Z" fill="#18214D"/>
<path d="M292.545 33.8412V40.6169H272.812V33.8412H292.545ZM277.292 26.0491H286.379V56.3706C286.379 57.2034 286.507 57.8527 286.764 58.3186C287.019 58.7702 287.376 59.0878 287.83 59.2714C288.3 59.4549 288.84 59.5467 289.451 59.5467C289.879 59.5467 290.305 59.5114 290.732 59.4408C291.158 59.3561 291.486 59.2926 291.713 59.2502L293.142 65.9625C292.687 66.1036 292.047 66.266 291.222 66.4494C290.397 66.6471 289.395 66.767 288.215 66.8094C286.024 66.8941 284.104 66.6048 282.455 65.9412C280.819 65.2778 279.546 64.2473 278.636 62.8498C277.726 61.4523 277.277 59.6878 277.292 57.5562V26.0491Z" fill="#18214D"/>
<path d="M313.046 67C309.675 67 306.774 66.3224 304.342 64.9672C301.924 63.598 300.061 61.6641 298.752 59.1656C297.444 56.6529 296.79 53.6814 296.79 50.2512C296.79 46.9057 297.444 43.9695 298.752 41.4428C300.061 38.9159 301.902 36.9467 304.278 35.5352C306.667 34.1235 309.468 33.4177 312.683 33.4177C314.845 33.4177 316.857 33.7636 318.72 34.4552C320.597 35.1328 322.233 36.1563 323.626 37.5255C325.034 38.8947 326.13 40.6169 326.911 42.692C327.693 44.7529 328.085 47.1668 328.085 49.9336V52.411H300.416V46.821H319.531C319.531 45.5223 319.246 44.3718 318.677 43.3696C318.109 42.3674 317.319 41.5839 316.31 41.0192C315.313 40.4404 314.155 40.1511 312.832 40.1511C311.453 40.1511 310.229 40.4687 309.163 41.1039C308.111 41.725 307.286 42.5649 306.688 43.6237C306.091 44.6683 305.785 45.8329 305.771 47.1174V52.4321C305.771 54.0414 306.069 55.4319 306.667 56.6034C307.279 57.7751 308.139 58.6785 309.248 59.3137C310.357 59.949 311.673 60.2666 313.195 60.2666C314.204 60.2666 315.129 60.1255 315.968 59.8431C316.807 59.5608 317.525 59.1373 318.123 58.5727C318.72 58.008 319.175 57.3163 319.487 56.4976L327.893 57.0481C327.466 59.0526 326.592 60.803 325.269 62.2993C323.961 63.7816 322.268 64.939 320.192 65.7719C318.13 66.5907 315.748 67 313.046 67Z" fill="#18214D"/>
<path d="M313.046 67C309.675 67 306.774 66.3224 304.342 64.9672C301.924 63.598 300.061 61.6641 298.752 59.1656C297.444 56.6529 296.79 53.6814 296.79 50.2512C296.79 46.9057 297.444 43.9695 298.752 41.4428C300.061 38.9159 301.902 36.9467 304.278 35.5352C306.667 34.1235 309.468 33.4177 312.683 33.4177C314.845 33.4177 316.857 33.7636 318.72 34.4552C320.597 35.1328 322.233 36.1563 323.626 37.5255C325.034 38.8947 326.13 40.6169 326.911 42.692C327.693 44.7529 328.085 47.1668 328.085 49.9336V52.411H300.416V46.821H319.531C319.531 45.5223 319.246 44.3718 318.677 43.3696C318.109 42.3674 317.319 41.5839 316.31 41.0192C315.313 40.4404 314.155 40.1511 312.832 40.1511C311.453 40.1511 310.229 40.4687 309.163 41.1039C308.111 41.725 307.286 42.5649 306.688 43.6237C306.091 44.6683 305.785 45.8329 305.771 47.1174V52.4321C305.771 54.0414 306.069 55.4319 306.667 56.6034C307.279 57.7751 308.139 58.6785 309.248 59.3137C310.357 59.949 311.673 60.2666 313.195 60.2666C314.204 60.2666 315.129 60.1255 315.968 59.8431C316.807 59.5608 317.525 59.1373 318.123 58.5727C318.72 58.008 319.175 57.3163 319.487 56.4976L327.893 57.0481C327.466 59.0526 326.592 60.803 325.269 62.2993C323.961 63.7816 322.268 64.939 320.192 65.7719C318.13 66.5907 315.748 67 313.046 67Z" fill="#18214D"/>
<path d="M348.82 67C345.464 67 342.576 66.2942 340.159 64.8826C337.756 63.4568 335.907 61.4806 334.613 58.9538C333.333 56.427 332.692 53.519 332.692 50.23C332.692 46.8986 333.34 43.9766 334.634 41.4639C335.942 38.9371 337.799 36.9679 340.202 35.5563C342.605 34.1306 345.464 33.4177 348.778 33.4177C351.636 33.4177 354.14 33.9329 356.287 34.9634C358.435 35.9939 360.134 37.4408 361.385 39.3042C362.637 41.1675 363.327 43.3555 363.455 45.8681H354.878C354.637 44.2448 353.997 42.939 352.959 41.9509C351.935 40.9487 350.591 40.4475 348.927 40.4475C347.519 40.4475 346.289 40.8287 345.237 41.5909C344.198 42.3391 343.387 43.4331 342.805 44.873C342.221 46.3128 341.93 48.0561 341.93 50.1029C341.93 52.178 342.214 53.9426 342.783 55.3965C343.366 56.8505 344.184 57.9586 345.237 58.7209C346.289 59.4832 347.519 59.8643 348.927 59.8643C349.965 59.8643 350.897 59.6525 351.722 59.2291C352.561 58.8055 353.25 58.1916 353.791 57.3869C354.346 56.5681 354.708 55.5871 354.878 54.4436H363.455C363.313 56.9281 362.63 59.1161 361.406 61.0077C360.198 62.8852 358.527 64.3532 356.393 65.4119C354.26 66.4706 351.736 67 348.82 67Z" fill="#18214D"/>
<path d="M348.82 67C345.464 67 342.576 66.2942 340.159 64.8826C337.756 63.4568 335.907 61.4806 334.613 58.9538C333.333 56.427 332.692 53.519 332.692 50.23C332.692 46.8986 333.34 43.9766 334.634 41.4639C335.942 38.9371 337.799 36.9679 340.202 35.5563C342.605 34.1306 345.464 33.4177 348.778 33.4177C351.636 33.4177 354.14 33.9329 356.287 34.9634C358.435 35.9939 360.134 37.4408 361.385 39.3042C362.637 41.1675 363.327 43.3555 363.455 45.8681H354.878C354.637 44.2448 353.997 42.939 352.959 41.9509C351.935 40.9487 350.591 40.4475 348.927 40.4475C347.519 40.4475 346.289 40.8287 345.237 41.5909C344.198 42.3391 343.387 43.4331 342.805 44.873C342.221 46.3128 341.93 48.0561 341.93 50.1029C341.93 52.178 342.214 53.9426 342.783 55.3965C343.366 56.8505 344.184 57.9586 345.237 58.7209C346.289 59.4832 347.519 59.8643 348.927 59.8643C349.965 59.8643 350.897 59.6525 351.722 59.2291C352.561 58.8055 353.25 58.1916 353.791 57.3869C354.346 56.5681 354.708 55.5871 354.878 54.4436H363.455C363.313 56.9281 362.63 59.1161 361.406 61.0077C360.198 62.8852 358.527 64.3532 356.393 65.4119C354.26 66.4706 351.736 67 348.82 67Z" fill="#18214D"/>
<path d="M386.702 33.8412V40.6169H366.969V33.8412H386.702ZM371.448 26.0491H380.537V56.3706C380.537 57.2034 380.665 57.8527 380.921 58.3186C381.176 58.7702 381.532 59.0878 381.987 59.2714C382.457 59.4549 382.998 59.5467 383.608 59.5467C384.036 59.5467 384.462 59.5114 384.889 59.4408C385.315 59.3561 385.643 59.2926 385.87 59.2502L387.299 65.9625C386.844 66.1036 386.204 66.266 385.379 66.4494C384.554 66.6471 383.552 66.767 382.372 66.8094C380.181 66.8941 378.261 66.6048 376.612 65.9412C374.976 65.2778 373.703 64.2473 372.793 62.8498C371.883 61.4523 371.434 59.6878 371.448 57.5562V26.0491Z" fill="#18214D"/>
<path d="M386.702 33.8412V40.6169H366.969V33.8412H386.702ZM371.448 26.0491H380.537V56.3706C380.537 57.2034 380.665 57.8527 380.921 58.3186C381.176 58.7702 381.532 59.0878 381.987 59.2714C382.457 59.4549 382.998 59.5467 383.608 59.5467C384.036 59.5467 384.462 59.5114 384.889 59.4408C385.315 59.3561 385.643 59.2926 385.87 59.2502L387.299 65.9625C386.844 66.1036 386.204 66.266 385.379 66.4494C384.554 66.6471 383.552 66.767 382.372 66.8094C380.181 66.8941 378.261 66.6048 376.612 65.9412C374.976 65.2778 373.703 64.2473 372.793 62.8498C371.883 61.4523 371.434 59.6878 371.448 57.5562V26.0491Z" fill="#18214D"/>
<path d="M401.966 66.9788C399.875 66.9788 398.012 66.6189 396.377 65.8989C394.741 65.1649 393.446 64.085 392.494 62.6593C391.555 61.2194 391.085 59.4266 391.085 57.2811C391.085 55.4742 391.42 53.9567 392.089 52.7286C392.757 51.5005 393.668 50.5124 394.819 49.7641C395.971 49.016 397.279 48.4514 398.745 48.0703C400.224 47.6891 401.773 47.4209 403.394 47.2656C405.301 47.068 406.837 46.8845 408.003 46.7151C409.168 46.5316 410.016 46.2634 410.541 45.9105C411.068 45.5576 411.331 45.0353 411.331 44.3436V44.2165C411.331 42.8755 410.904 41.838 410.051 41.1039C409.212 40.3699 408.017 40.0029 406.467 40.0029C404.831 40.0029 403.53 40.3628 402.562 41.0827C401.596 41.7886 400.955 42.6779 400.643 43.7507L392.238 43.0732C392.664 41.0968 393.503 39.3888 394.755 37.9489C396.006 36.495 397.62 35.3798 399.598 34.6035C401.588 33.8129 403.893 33.4177 406.509 33.4177C408.329 33.4177 410.072 33.6294 411.736 34.0529C413.415 34.4764 414.9 35.1328 416.195 36.0221C417.503 36.9114 418.534 38.0549 419.288 39.4523C420.042 40.8358 420.418 42.4944 420.418 44.4283V66.3648H411.8V61.8546H411.544C411.018 62.8711 410.314 63.7673 409.432 64.5438C408.551 65.306 407.49 65.906 406.254 66.3436C405.016 66.7671 403.587 66.9788 401.966 66.9788ZM404.568 60.7536C405.906 60.7536 407.086 60.4925 408.109 59.9701C409.133 59.4338 409.937 58.7138 410.52 57.8104C411.103 56.9069 411.395 55.8835 411.395 54.7401V51.2887C411.11 51.4722 410.719 51.6416 410.222 51.7969C409.738 51.938 409.191 52.0722 408.579 52.1992C407.967 52.3122 407.355 52.418 406.745 52.5168C406.133 52.6016 405.578 52.6792 405.081 52.7497C404.013 52.905 403.082 53.152 402.285 53.4908C401.489 53.8296 400.87 54.2884 400.43 54.8672C399.988 55.4319 399.768 56.1376 399.768 56.9846C399.768 58.2127 400.217 59.1515 401.113 59.8008C402.023 60.436 403.174 60.7536 404.568 60.7536Z" fill="#18214D"/>
<path d="M401.966 66.9788C399.875 66.9788 398.012 66.6189 396.377 65.8989C394.741 65.1649 393.446 64.085 392.494 62.6593C391.555 61.2194 391.085 59.4266 391.085 57.2811C391.085 55.4742 391.42 53.9567 392.089 52.7286C392.757 51.5005 393.668 50.5124 394.819 49.7641C395.971 49.016 397.279 48.4514 398.745 48.0703C400.224 47.6891 401.773 47.4209 403.394 47.2656C405.301 47.068 406.837 46.8845 408.003 46.7151C409.168 46.5316 410.016 46.2634 410.541 45.9105C411.068 45.5576 411.331 45.0353 411.331 44.3436V44.2165C411.331 42.8755 410.904 41.838 410.051 41.1039C409.212 40.3699 408.017 40.0029 406.467 40.0029C404.831 40.0029 403.53 40.3628 402.562 41.0827C401.596 41.7886 400.955 42.6779 400.643 43.7507L392.238 43.0732C392.664 41.0968 393.503 39.3888 394.755 37.9489C396.006 36.495 397.62 35.3798 399.598 34.6035C401.588 33.8129 403.893 33.4177 406.509 33.4177C408.329 33.4177 410.072 33.6294 411.736 34.0529C413.415 34.4764 414.9 35.1328 416.195 36.0221C417.503 36.9114 418.534 38.0549 419.288 39.4523C420.042 40.8358 420.418 42.4944 420.418 44.4283V66.3648H411.8V61.8546H411.544C411.018 62.8711 410.314 63.7673 409.432 64.5438C408.551 65.306 407.49 65.906 406.254 66.3436C405.016 66.7671 403.587 66.9788 401.966 66.9788ZM404.568 60.7536C405.906 60.7536 407.086 60.4925 408.109 59.9701C409.133 59.4338 409.937 58.7138 410.52 57.8104C411.103 56.9069 411.395 55.8835 411.395 54.7401V51.2887C411.11 51.4722 410.719 51.6416 410.222 51.7969C409.738 51.938 409.191 52.0722 408.579 52.1992C407.967 52.3122 407.355 52.418 406.745 52.5168C406.133 52.6016 405.578 52.6792 405.081 52.7497C404.013 52.905 403.082 53.152 402.285 53.4908C401.489 53.8296 400.87 54.2884 400.43 54.8672C399.988 55.4319 399.768 56.1376 399.768 56.9846C399.768 58.2127 400.217 59.1515 401.113 59.8008C402.023 60.436 403.174 60.7536 404.568 60.7536Z" fill="#18214D"/>
<path d="M427.64 66.3648V23H436.727V39.3042H437.004C437.403 38.429 437.978 37.5396 438.732 36.6362C439.5 35.7186 440.496 34.9564 441.719 34.3494C442.956 33.7283 444.492 33.4178 446.326 33.4178C448.716 33.4178 450.92 34.0389 452.94 35.2811C454.96 36.5092 456.574 38.3655 457.782 40.8499C458.992 43.3202 459.596 46.4187 459.596 50.1454C459.596 53.7732 459.006 56.8364 457.825 59.3349C456.659 61.8194 455.066 63.7039 453.047 64.9884C451.041 66.2589 448.794 66.8942 446.305 66.8942C444.542 66.8942 443.041 66.6048 441.804 66.026C440.581 65.4472 439.578 64.7203 438.796 63.8451C438.014 62.9557 437.417 62.0594 437.004 61.1559H436.6V66.3648H427.64ZM436.535 50.1029C436.535 52.0369 436.805 53.7238 437.345 55.1637C437.886 56.6034 438.668 57.7257 439.692 58.5304C440.717 59.3208 441.961 59.716 443.426 59.716C444.905 59.716 446.156 59.3138 447.18 58.5092C448.204 57.6904 448.98 56.5611 449.505 55.1213C450.046 53.6673 450.316 51.9946 450.316 50.1029C450.316 48.2255 450.053 46.5739 449.526 45.1482C449.001 43.7225 448.226 42.6073 447.201 41.8027C446.177 40.9981 444.919 40.5958 443.426 40.5958C441.946 40.5958 440.695 40.984 439.671 41.7604C438.661 42.5367 437.886 43.6378 437.345 45.0635C436.805 46.4893 436.535 48.1691 436.535 50.1029Z" fill="#18214D"/>
<path d="M427.64 66.3648V23H436.727V39.3042H437.004C437.403 38.429 437.978 37.5396 438.732 36.6362C439.5 35.7186 440.496 34.9564 441.719 34.3494C442.956 33.7283 444.492 33.4178 446.326 33.4178C448.716 33.4178 450.92 34.0389 452.94 35.2811C454.96 36.5092 456.574 38.3655 457.782 40.8499C458.992 43.3202 459.596 46.4187 459.596 50.1454C459.596 53.7732 459.006 56.8364 457.825 59.3349C456.659 61.8194 455.066 63.7039 453.047 64.9884C451.041 66.2589 448.794 66.8942 446.305 66.8942C444.542 66.8942 443.041 66.6048 441.804 66.026C440.581 65.4472 439.578 64.7203 438.796 63.8451C438.014 62.9557 437.417 62.0594 437.004 61.1559H436.6V66.3648H427.64ZM436.535 50.1029C436.535 52.0369 436.805 53.7238 437.345 55.1637C437.886 56.6034 438.668 57.7257 439.692 58.5304C440.717 59.3208 441.961 59.716 443.426 59.716C444.905 59.716 446.156 59.3138 447.18 58.5092C448.204 57.6904 448.98 56.5611 449.505 55.1213C450.046 53.6673 450.316 51.9946 450.316 50.1029C450.316 48.2255 450.053 46.5739 449.526 45.1482C449.001 43.7225 448.226 42.6073 447.201 41.8027C446.177 40.9981 444.919 40.5958 443.426 40.5958C441.946 40.5958 440.695 40.984 439.671 41.7604C438.661 42.5367 437.886 43.6378 437.345 45.0635C436.805 46.4893 436.535 48.1691 436.535 50.1029Z" fill="#18214D"/>
<path d="M474.747 23V66.3648H465.66V23H474.747Z" fill="#18214D"/>
<path d="M474.747 23V66.3648H465.66V23H474.747Z" fill="#18214D"/>
<path d="M496.961 67C493.591 67 490.689 66.3224 488.257 64.9672C485.839 63.598 483.976 61.6641 482.668 59.1656C481.36 56.6529 480.705 53.6814 480.705 50.2512C480.705 46.9057 481.36 43.9695 482.668 41.4428C483.976 38.9159 485.818 36.9467 488.193 35.5352C490.582 34.1235 493.384 33.4177 496.598 33.4177C498.76 33.4177 500.772 33.7636 502.636 34.4552C504.513 35.1328 506.148 36.1563 507.542 37.5255C508.95 38.8947 510.045 40.6169 510.828 42.692C511.609 44.7529 512 47.1668 512 49.9336V52.411H484.332V46.821H503.446C503.446 45.5223 503.161 44.3718 502.592 43.3696C502.024 42.3674 501.235 41.5839 500.225 41.0192C499.229 40.4404 498.07 40.1511 496.747 40.1511C495.368 40.1511 494.145 40.4687 493.078 41.1039C492.026 41.725 491.201 42.5649 490.604 43.6237C490.006 44.6683 489.701 45.8329 489.687 47.1174V52.4321C489.687 54.0414 489.985 55.4319 490.582 56.6034C491.194 57.7751 492.055 58.6785 493.164 59.3137C494.272 59.949 495.588 60.2666 497.11 60.2666C498.12 60.2666 499.044 60.1255 499.883 59.8431C500.722 59.5608 501.441 59.1373 502.038 58.5727C502.636 58.008 503.09 57.3163 503.403 56.4976L511.809 57.0481C511.382 59.0526 510.507 60.803 509.185 62.2993C507.876 63.7816 506.184 64.939 504.107 65.7719C502.045 66.5907 499.663 67 496.961 67Z" fill="#18214D"/>
<path d="M496.961 67C493.591 67 490.689 66.3224 488.257 64.9672C485.839 63.598 483.976 61.6641 482.668 59.1656C481.36 56.6529 480.705 53.6814 480.705 50.2512C480.705 46.9057 481.36 43.9695 482.668 41.4428C483.976 38.9159 485.818 36.9467 488.193 35.5352C490.582 34.1235 493.384 33.4177 496.598 33.4177C498.76 33.4177 500.772 33.7636 502.636 34.4552C504.513 35.1328 506.148 36.1563 507.542 37.5255C508.95 38.8947 510.045 40.6169 510.828 42.692C511.609 44.7529 512 47.1668 512 49.9336V52.411H484.332V46.821H503.446C503.446 45.5223 503.161 44.3718 502.592 43.3696C502.024 42.3674 501.235 41.5839 500.225 41.0192C499.229 40.4404 498.07 40.1511 496.747 40.1511C495.368 40.1511 494.145 40.4687 493.078 41.1039C492.026 41.725 491.201 42.5649 490.604 43.6237C490.006 44.6683 489.701 45.8329 489.687 47.1174V52.4321C489.687 54.0414 489.985 55.4319 490.582 56.6034C491.194 57.7751 492.055 58.6785 493.164 59.3137C494.272 59.949 495.588 60.2666 497.11 60.2666C498.12 60.2666 499.044 60.1255 499.883 59.8431C500.722 59.5608 501.441 59.1373 502.038 58.5727C502.636 58.008 503.09 57.3163 503.403 56.4976L511.809 57.0481C511.382 59.0526 510.507 60.803 509.185 62.2993C507.876 63.7816 506.184 64.939 504.107 65.7719C502.045 66.5907 499.663 67 496.961 67Z" fill="#18214D"/>
</svg>
