<svg width="567" height="100" viewBox="0 0 567 100" fill="none" xmlns="http://www.w3.org/2000/svg">
<path d="M159.93 24.5269H170.181V56.0136C170.181 59.549 169.336 62.6424 167.648 65.294C165.974 67.9454 163.631 70.013 160.616 71.4965C157.602 72.9644 154.09 73.6983 150.081 73.6983C146.056 73.6983 142.538 72.9644 139.523 71.4965C136.509 70.013 134.164 67.9454 132.492 65.294C130.819 62.6424 129.982 59.549 129.982 56.0136V24.5269H140.233V55.1376C140.233 56.9843 140.635 58.6256 141.441 60.062C142.261 61.4982 143.413 62.6266 144.896 63.4473C146.381 64.2681 148.109 64.6784 150.081 64.6784C152.07 64.6784 153.799 64.2681 155.266 63.4473C156.75 62.6266 157.894 61.4982 158.699 60.062C159.52 58.6256 159.93 56.9843 159.93 55.1376V24.5269Z" fill="white"/>
<path d="M159.93 24.5269H170.181V56.0136C170.181 59.549 169.336 62.6424 167.648 65.294C165.974 67.9454 163.631 70.013 160.616 71.4965C157.602 72.9644 154.09 73.6983 150.081 73.6983C146.056 73.6983 142.538 72.9644 139.523 71.4965C136.509 70.013 134.164 67.9454 132.492 65.294C130.819 62.6424 129.982 59.549 129.982 56.0136V24.5269H140.233V55.1376C140.233 56.9843 140.635 58.6256 141.441 60.062C142.261 61.4982 143.413 62.6266 144.896 63.4473C146.381 64.2681 148.109 64.6784 150.081 64.6784C152.07 64.6784 153.799 64.2681 155.266 63.4473C156.75 62.6266 157.894 61.4982 158.699 60.062C159.52 58.6256 159.93 56.9843 159.93 55.1376V24.5269Z" fill="white"/>
<path d="M188.511 51.989V73.0118H178.425V36.6481H188.037V43.0639H188.463C189.269 40.9489 190.617 39.276 192.512 38.0449C194.405 36.7981 196.702 36.1747 199.401 36.1747C201.926 36.1747 204.127 36.727 206.006 37.8319C207.884 38.9367 209.344 40.5149 210.385 42.5667C211.427 44.6027 211.948 47.0332 211.948 49.8583V73.0118H201.863V51.6576C201.878 49.4322 201.311 47.6961 200.159 46.4492C199.006 45.1867 197.42 44.5553 195.4 44.5553C194.042 44.5553 192.843 44.8473 191.801 45.4312C190.775 46.0152 189.971 46.8676 189.386 47.9881C188.819 49.0929 188.526 50.4266 188.511 51.989Z" fill="white"/>
<path d="M188.511 51.989V73.0118H178.425V36.6481H188.037V43.0639H188.463C189.269 40.9489 190.617 39.276 192.512 38.0449C194.405 36.7981 196.702 36.1747 199.401 36.1747C201.926 36.1747 204.127 36.727 206.006 37.8319C207.884 38.9367 209.344 40.5149 210.385 42.5667C211.427 44.6027 211.948 47.0332 211.948 49.8583V73.0118H201.863V51.6576C201.878 49.4322 201.311 47.6961 200.159 46.4492C199.006 45.1867 197.42 44.5553 195.4 44.5553C194.042 44.5553 192.843 44.8473 191.801 45.4312C190.775 46.0152 189.971 46.8676 189.386 47.9881C188.819 49.0929 188.526 50.4266 188.511 51.989Z" fill="white"/>
<path d="M233.296 73.6036C230.534 73.6036 228.033 72.8933 225.792 71.4728C223.566 70.0366 221.799 67.9296 220.489 65.1518C219.194 62.3583 218.547 58.9334 218.547 54.8773C218.547 50.7106 219.219 47.2463 220.56 44.4843C221.901 41.7065 223.684 39.6311 225.91 38.258C228.151 36.8691 230.605 36.1746 233.273 36.1746C235.309 36.1746 237.005 36.5219 238.363 37.2163C239.735 37.895 240.841 38.7472 241.677 39.7731C242.53 40.7832 243.176 41.7775 243.619 42.7561H243.926V24.5269H253.988V73.0117H244.044V67.1878H243.619C243.145 68.198 242.474 69.2002 241.606 70.1945C240.754 71.1731 239.641 71.9858 238.267 72.6329C236.911 73.2801 235.253 73.6036 233.296 73.6036ZM236.492 65.578C238.117 65.578 239.491 65.1361 240.612 64.2523C241.749 63.3526 242.616 62.0978 243.216 60.4881C243.832 58.8782 244.139 56.9922 244.139 54.8298C244.139 52.6676 243.84 50.7895 243.24 49.1954C242.64 47.6014 241.772 46.3703 240.635 45.5023C239.499 44.6342 238.117 44.2002 236.492 44.2002C234.835 44.2002 233.439 44.65 232.302 45.5496C231.165 46.4492 230.305 47.6961 229.722 49.2901C229.137 50.8842 228.845 52.7307 228.845 54.8298C228.845 56.9448 229.137 58.8151 229.722 60.4407C230.321 62.0505 231.182 63.3132 232.302 64.2286C233.439 65.1282 234.835 65.578 236.492 65.578Z" fill="white"/>
<path d="M233.296 73.6036C230.534 73.6036 228.033 72.8933 225.792 71.4728C223.566 70.0366 221.799 67.9296 220.489 65.1518C219.194 62.3583 218.547 58.9334 218.547 54.8773C218.547 50.7106 219.219 47.2463 220.56 44.4843C221.901 41.7065 223.684 39.6311 225.91 38.258C228.151 36.8691 230.605 36.1746 233.273 36.1746C235.309 36.1746 237.005 36.5219 238.363 37.2163C239.735 37.895 240.841 38.7472 241.677 39.7731C242.53 40.7832 243.176 41.7775 243.619 42.7561H243.926V24.5269H253.988V73.0117H244.044V67.1878H243.619C243.145 68.198 242.474 69.2002 241.606 70.1945C240.754 71.1731 239.641 71.9858 238.267 72.6329C236.911 73.2801 235.253 73.6036 233.296 73.6036ZM236.492 65.578C238.117 65.578 239.491 65.1361 240.612 64.2523C241.749 63.3526 242.616 62.0978 243.216 60.4881C243.832 58.8782 244.139 56.9922 244.139 54.8298C244.139 52.6676 243.84 50.7895 243.24 49.1954C242.64 47.6014 241.772 46.3703 240.635 45.5023C239.499 44.6342 238.117 44.2002 236.492 44.2002C234.835 44.2002 233.439 44.65 232.302 45.5496C231.165 46.4492 230.305 47.6961 229.722 49.2901C229.137 50.8842 228.845 52.7307 228.845 54.8298C228.845 56.9448 229.137 58.8151 229.722 60.4407C230.321 62.0505 231.182 63.3132 232.302 64.2286C233.439 65.1282 234.835 65.578 236.492 65.578Z" fill="white"/>
<path d="M278.852 73.722C275.111 73.722 271.891 72.9645 269.192 71.4492C266.51 69.9183 264.442 67.7561 262.99 64.9626C261.538 62.1532 260.812 58.8309 260.812 54.9957C260.812 51.2551 261.538 47.9723 262.99 45.1472C264.442 42.322 266.486 40.1203 269.122 38.5421C271.773 36.9638 274.882 36.1747 278.449 36.1747C280.848 36.1747 283.081 36.5613 285.149 37.3347C287.232 38.0922 289.048 39.2366 290.594 40.7675C292.157 42.2983 293.372 44.2239 294.24 46.544C295.108 48.8482 295.542 51.5471 295.542 54.6406V57.4105H264.837V51.1605H286.049C286.049 49.7085 285.733 48.4221 285.102 47.3016C284.47 46.181 283.594 45.305 282.474 44.6737C281.369 44.0266 280.083 43.703 278.616 43.703C277.084 43.703 275.727 44.0581 274.543 44.7683C273.376 45.4628 272.46 46.4019 271.797 47.5857C271.134 48.7536 270.794 50.0557 270.779 51.4919V57.4341C270.779 59.2333 271.11 60.788 271.773 62.0979C272.452 63.4079 273.407 64.418 274.638 65.1282C275.869 65.8385 277.329 66.1936 279.018 66.1936C280.138 66.1936 281.164 66.0358 282.096 65.7201C283.027 65.4045 283.823 64.931 284.487 64.2997C285.149 63.6684 285.654 62.895 286.001 61.9796L295.329 62.5951C294.856 64.8362 293.884 66.7934 292.417 68.4664C290.966 70.1236 289.087 71.4177 286.782 72.3489C284.494 73.2643 281.85 73.722 278.852 73.722Z" fill="white"/>
<path d="M278.852 73.722C275.111 73.722 271.891 72.9645 269.192 71.4492C266.51 69.9183 264.442 67.7561 262.99 64.9626C261.538 62.1532 260.812 58.8309 260.812 54.9957C260.812 51.2551 261.538 47.9723 262.99 45.1472C264.442 42.322 266.486 40.1203 269.122 38.5421C271.773 36.9638 274.882 36.1747 278.449 36.1747C280.848 36.1747 283.081 36.5613 285.149 37.3347C287.232 38.0922 289.048 39.2366 290.594 40.7675C292.157 42.2983 293.372 44.2239 294.24 46.544C295.108 48.8482 295.542 51.5471 295.542 54.6406V57.4105H264.837V51.1605H286.049C286.049 49.7085 285.733 48.4221 285.102 47.3016C284.47 46.181 283.594 45.305 282.474 44.6737C281.369 44.0266 280.083 43.703 278.616 43.703C277.084 43.703 275.727 44.0581 274.543 44.7683C273.376 45.4628 272.46 46.4019 271.797 47.5857C271.134 48.7536 270.794 50.0557 270.779 51.4919V57.4341C270.779 59.2333 271.11 60.788 271.773 62.0979C272.452 63.4079 273.407 64.418 274.638 65.1282C275.869 65.8385 277.329 66.1936 279.018 66.1936C280.138 66.1936 281.164 66.0358 282.096 65.7201C283.027 65.4045 283.823 64.931 284.487 64.2997C285.149 63.6684 285.654 62.895 286.001 61.9796L295.329 62.5951C294.856 64.8362 293.884 66.7934 292.417 68.4664C290.966 70.1236 289.087 71.4177 286.782 72.3489C284.494 73.2643 281.85 73.722 278.852 73.722Z" fill="white"/>
<path d="M321.465 36.648V44.2238H299.566V36.648H321.465ZM304.538 27.9359H314.623V61.8375C314.623 62.7686 314.765 63.4946 315.05 64.0155C315.333 64.5205 315.728 64.8756 316.233 65.0808C316.754 65.286 317.354 65.3886 318.032 65.3886C318.506 65.3886 318.98 65.3491 319.453 65.2703C319.926 65.1755 320.29 65.1045 320.542 65.0571L322.127 72.5619C321.623 72.7197 320.913 72.9013 319.997 73.1064C319.082 73.3274 317.97 73.4615 316.66 73.5088C314.228 73.6036 312.097 73.28 310.267 72.5381C308.452 71.7964 307.04 70.6443 306.03 69.0817C305.02 67.5193 304.522 65.5464 304.538 63.1631V27.9359Z" fill="white"/>
<path d="M321.465 36.648V44.2238H299.566V36.648H321.465ZM304.538 27.9359H314.623V61.8375C314.623 62.7686 314.765 63.4946 315.05 64.0155C315.333 64.5205 315.728 64.8756 316.233 65.0808C316.754 65.286 317.354 65.3886 318.032 65.3886C318.506 65.3886 318.98 65.3491 319.453 65.2703C319.926 65.1755 320.29 65.1045 320.542 65.0571L322.127 72.5619C321.623 72.7197 320.913 72.9013 319.997 73.1064C319.082 73.3274 317.97 73.4615 316.66 73.5088C314.228 73.6036 312.097 73.28 310.267 72.5381C308.452 71.7964 307.04 70.6443 306.03 69.0817C305.02 67.5193 304.522 65.5464 304.538 63.1631V27.9359Z" fill="white"/>
<path d="M344.217 73.722C340.476 73.722 337.257 72.9645 334.558 71.4492C331.875 69.9183 329.807 67.7561 328.355 64.9626C326.902 62.1532 326.177 58.8309 326.177 54.9957C326.177 51.2551 326.902 47.9723 328.355 45.1472C329.807 42.322 331.85 40.1203 334.487 38.5421C337.138 36.9638 340.247 36.1747 343.815 36.1747C346.213 36.1747 348.447 36.5613 350.513 37.3347C352.597 38.0922 354.412 39.2366 355.959 40.7675C357.521 42.2983 358.737 44.2239 359.605 46.544C360.472 48.8482 360.907 51.5471 360.907 54.6406V57.4105H330.201V51.1605H351.413C351.413 49.7085 351.098 48.4221 350.467 47.3016C349.836 46.181 348.959 45.305 347.839 44.6737C346.733 44.0266 345.448 43.703 343.98 43.703C342.449 43.703 341.091 44.0581 339.908 44.7683C338.74 45.4628 337.825 46.4019 337.161 47.5857C336.499 48.7536 336.159 50.0557 336.143 51.4919V57.4341C336.143 59.2333 336.475 60.788 337.138 62.0979C337.817 63.4079 338.771 64.418 340.002 65.1282C341.233 65.8385 342.693 66.1936 344.382 66.1936C345.502 66.1936 346.529 66.0358 347.46 65.7201C348.391 65.4045 349.188 64.931 349.851 64.2997C350.513 63.6684 351.019 62.895 351.366 61.9796L360.693 62.5951C360.22 64.8362 359.25 66.7934 357.782 68.4664C356.33 70.1236 354.451 71.4177 352.148 72.3489C349.859 73.2643 347.216 73.722 344.217 73.722Z" fill="white"/>
<path d="M344.217 73.722C340.476 73.722 337.257 72.9645 334.558 71.4492C331.875 69.9183 329.807 67.7561 328.355 64.9626C326.902 62.1532 326.177 58.8309 326.177 54.9957C326.177 51.2551 326.902 47.9723 328.355 45.1472C329.807 42.322 331.85 40.1203 334.487 38.5421C337.138 36.9638 340.247 36.1747 343.815 36.1747C346.213 36.1747 348.447 36.5613 350.513 37.3347C352.597 38.0922 354.412 39.2366 355.959 40.7675C357.521 42.2983 358.737 44.2239 359.605 46.544C360.472 48.8482 360.907 51.5471 360.907 54.6406V57.4105H330.201V51.1605H351.413C351.413 49.7085 351.098 48.4221 350.467 47.3016C349.836 46.181 348.959 45.305 347.839 44.6737C346.733 44.0266 345.448 43.703 343.98 43.703C342.449 43.703 341.091 44.0581 339.908 44.7683C338.74 45.4628 337.825 46.4019 337.161 47.5857C336.499 48.7536 336.159 50.0557 336.143 51.4919V57.4341C336.143 59.2333 336.475 60.788 337.138 62.0979C337.817 63.4079 338.771 64.418 340.002 65.1282C341.233 65.8385 342.693 66.1936 344.382 66.1936C345.502 66.1936 346.529 66.0358 347.46 65.7201C348.391 65.4045 349.188 64.931 349.851 64.2997C350.513 63.6684 351.019 62.895 351.366 61.9796L360.693 62.5951C360.22 64.8362 359.25 66.7934 357.782 68.4664C356.33 70.1236 354.451 71.4177 352.148 72.3489C349.859 73.2643 347.216 73.722 344.217 73.722Z" fill="white"/>
<path d="M383.918 73.722C380.193 73.722 376.989 72.9329 374.307 71.3546C371.639 69.7605 369.588 67.5509 368.151 64.7258C366.731 61.9007 366.02 58.6493 366.02 54.972C366.02 51.2472 366.739 47.9802 368.175 45.1709C369.627 42.3457 371.687 40.144 374.353 38.5658C377.021 36.9717 380.193 36.1747 383.871 36.1747C387.043 36.1747 389.821 36.7507 392.205 37.9029C394.588 39.055 396.473 40.6728 397.862 42.7561C399.251 44.8395 400.017 47.2858 400.159 50.0951H390.641C390.373 48.2801 389.663 46.8201 388.511 45.7153C387.375 44.5948 385.883 44.0345 384.037 44.0345C382.475 44.0345 381.109 44.4607 379.941 45.3129C378.789 46.1493 377.889 47.3726 377.242 48.9825C376.595 50.5922 376.271 52.5415 376.271 54.8299C376.271 57.15 376.587 59.1229 377.218 60.7485C377.866 62.3741 378.773 63.6131 379.941 64.4653C381.109 65.3177 382.475 65.7438 384.037 65.7438C385.189 65.7438 386.222 65.507 387.138 65.0336C388.069 64.56 388.835 63.8736 389.435 62.9739C390.05 62.0585 390.452 60.9616 390.641 59.6831H400.159C400.001 62.4609 399.243 64.9072 397.886 67.0222C396.545 69.1213 394.69 70.7627 392.322 71.9465C389.955 73.1301 387.153 73.722 383.918 73.722Z" fill="white"/>
<path d="M383.918 73.722C380.193 73.722 376.989 72.9329 374.307 71.3546C371.639 69.7605 369.588 67.5509 368.151 64.7258C366.731 61.9007 366.02 58.6493 366.02 54.972C366.02 51.2472 366.739 47.9802 368.175 45.1709C369.627 42.3457 371.687 40.144 374.353 38.5658C377.021 36.9717 380.193 36.1747 383.871 36.1747C387.043 36.1747 389.821 36.7507 392.205 37.9029C394.588 39.055 396.473 40.6728 397.862 42.7561C399.251 44.8395 400.017 47.2858 400.159 50.0951H390.641C390.373 48.2801 389.663 46.8201 388.511 45.7153C387.375 44.5948 385.883 44.0345 384.037 44.0345C382.475 44.0345 381.109 44.4607 379.941 45.3129C378.789 46.1493 377.889 47.3726 377.242 48.9825C376.595 50.5922 376.271 52.5415 376.271 54.8299C376.271 57.15 376.587 59.1229 377.218 60.7485C377.866 62.3741 378.773 63.6131 379.941 64.4653C381.109 65.3177 382.475 65.7438 384.037 65.7438C385.189 65.7438 386.222 65.507 387.138 65.0336C388.069 64.56 388.835 63.8736 389.435 62.9739C390.05 62.0585 390.452 60.9616 390.641 59.6831H400.159C400.001 62.4609 399.243 64.9072 397.886 67.0222C396.545 69.1213 394.69 70.7627 392.322 71.9465C389.955 73.1301 387.153 73.722 383.918 73.722Z" fill="white"/>
<path d="M425.957 36.648V44.2238H404.058V36.648H425.957ZM409.03 27.9359H419.115V61.8375C419.115 62.7686 419.257 63.4946 419.542 64.0155C419.825 64.5205 420.22 64.8756 420.725 65.0808C421.246 65.286 421.846 65.3886 422.524 65.3886C422.998 65.3886 423.472 65.3491 423.945 65.2703C424.418 65.1755 424.782 65.1045 425.034 65.0571L426.62 72.5619C426.115 72.7197 425.405 72.9013 424.49 73.1064C423.574 73.3274 422.462 73.4615 421.152 73.5088C418.721 73.6036 416.59 73.28 414.76 72.5381C412.944 71.7964 411.532 70.6443 410.522 69.0817C409.512 67.5193 409.014 65.5464 409.03 63.1631V27.9359Z" fill="white"/>
<path d="M425.957 36.648V44.2238H404.058V36.648H425.957ZM409.03 27.9359H419.115V61.8375C419.115 62.7686 419.257 63.4946 419.542 64.0155C419.825 64.5205 420.22 64.8756 420.725 65.0808C421.246 65.286 421.846 65.3886 422.524 65.3886C422.998 65.3886 423.472 65.3491 423.945 65.2703C424.418 65.1755 424.782 65.1045 425.034 65.0571L426.62 72.5619C426.115 72.7197 425.405 72.9013 424.49 73.1064C423.574 73.3274 422.462 73.4615 421.152 73.5088C418.721 73.6036 416.59 73.28 414.76 72.5381C412.944 71.7964 411.532 70.6443 410.522 69.0817C409.512 67.5193 409.014 65.5464 409.03 63.1631V27.9359Z" fill="white"/>
<path d="M442.897 73.6983C440.577 73.6983 438.509 73.2959 436.695 72.4909C434.879 71.6702 433.442 70.4628 432.386 68.8688C431.343 67.2589 430.822 65.2544 430.822 62.8556C430.822 60.8353 431.193 59.1387 431.936 57.7656C432.677 56.3924 433.688 55.2877 434.966 54.4511C436.245 53.6147 437.696 52.9833 439.322 52.5572C440.963 52.1311 442.683 51.8312 444.482 51.6576C446.598 51.4367 448.302 51.2315 449.597 51.0421C450.89 50.8369 451.83 50.537 452.413 50.1425C452.998 49.7479 453.29 49.1639 453.29 48.3906V48.2485C453.29 46.7491 452.816 45.5891 451.869 44.7683C450.938 43.9477 449.612 43.5373 447.892 43.5373C446.077 43.5373 444.632 43.9398 443.559 44.7447C442.487 45.5339 441.776 46.5282 441.429 47.7277L432.101 46.9701C432.575 44.7605 433.506 42.8508 434.895 41.2409C436.283 39.6153 438.075 38.3685 440.269 37.5005C442.478 36.6166 445.036 36.1747 447.939 36.1747C449.959 36.1747 451.892 36.4113 453.739 36.8849C455.602 37.3583 457.251 38.0922 458.688 39.0866C460.139 40.0809 461.283 41.3593 462.12 42.9218C462.957 44.4686 463.375 46.323 463.375 48.4852V73.0118H453.81V67.9691H453.527C452.942 69.1056 452.161 70.1077 451.182 70.9758C450.205 71.828 449.028 72.4988 447.656 72.9881C446.282 73.4616 444.696 73.6983 442.897 73.6983ZM445.785 66.7381C447.269 66.7381 448.579 66.4461 449.715 65.8621C450.851 65.2624 451.743 64.4574 452.39 63.4473C453.037 62.4372 453.361 61.293 453.361 60.0146V56.1557C453.045 56.3609 452.611 56.5502 452.059 56.7239C451.522 56.8817 450.915 57.0317 450.236 57.1737C449.557 57.3 448.878 57.4183 448.2 57.5288C447.521 57.6236 446.906 57.7103 446.353 57.7892C445.169 57.9628 444.136 58.239 443.251 58.6178C442.368 58.9966 441.681 59.5096 441.192 60.1567C440.702 60.788 440.458 61.5771 440.458 62.5241C440.458 63.8972 440.956 64.9468 441.95 65.6728C442.96 66.383 444.238 66.7381 445.785 66.7381Z" fill="white"/>
<path d="M442.897 73.6983C440.577 73.6983 438.509 73.2959 436.695 72.4909C434.879 71.6702 433.442 70.4628 432.386 68.8688C431.343 67.2589 430.822 65.2544 430.822 62.8556C430.822 60.8353 431.193 59.1387 431.936 57.7656C432.677 56.3924 433.688 55.2877 434.966 54.4511C436.245 53.6147 437.696 52.9833 439.322 52.5572C440.963 52.1311 442.683 51.8312 444.482 51.6576C446.598 51.4367 448.302 51.2315 449.597 51.0421C450.89 50.8369 451.83 50.537 452.413 50.1425C452.998 49.7479 453.29 49.1639 453.29 48.3906V48.2485C453.29 46.7491 452.816 45.5891 451.869 44.7683C450.938 43.9477 449.612 43.5373 447.892 43.5373C446.077 43.5373 444.632 43.9398 443.559 44.7447C442.487 45.5339 441.776 46.5282 441.429 47.7277L432.101 46.9701C432.575 44.7605 433.506 42.8508 434.895 41.2409C436.283 39.6153 438.075 38.3685 440.269 37.5005C442.478 36.6166 445.036 36.1747 447.939 36.1747C449.959 36.1747 451.892 36.4113 453.739 36.8849C455.602 37.3583 457.251 38.0922 458.688 39.0866C460.139 40.0809 461.283 41.3593 462.12 42.9218C462.957 44.4686 463.375 46.323 463.375 48.4852V73.0118H453.81V67.9691H453.527C452.942 69.1056 452.161 70.1077 451.182 70.9758C450.205 71.828 449.028 72.4988 447.656 72.9881C446.282 73.4616 444.696 73.6983 442.897 73.6983ZM445.785 66.7381C447.269 66.7381 448.579 66.4461 449.715 65.8621C450.851 65.2624 451.743 64.4574 452.39 63.4473C453.037 62.4372 453.361 61.293 453.361 60.0146V56.1557C453.045 56.3609 452.611 56.5502 452.059 56.7239C451.522 56.8817 450.915 57.0317 450.236 57.1737C449.557 57.3 448.878 57.4183 448.2 57.5288C447.521 57.6236 446.906 57.7103 446.353 57.7892C445.169 57.9628 444.136 58.239 443.251 58.6178C442.368 58.9966 441.681 59.5096 441.192 60.1567C440.702 60.788 440.458 61.5771 440.458 62.5241C440.458 63.8972 440.956 64.9468 441.95 65.6728C442.96 66.383 444.238 66.7381 445.785 66.7381Z" fill="white"/>
<path d="M471.389 73.0117V24.5269H481.473V42.7561H481.781C482.223 41.7775 482.862 40.7832 483.699 39.7731C484.551 38.7472 485.656 37.895 487.013 37.2163C488.386 36.5219 490.091 36.1746 492.126 36.1746C494.779 36.1746 497.224 36.8691 499.466 38.258C501.707 39.6311 503.499 41.7065 504.84 44.4843C506.182 47.2463 506.852 50.7106 506.852 54.8773C506.852 58.9334 506.197 62.3583 504.887 65.1518C503.593 67.9296 501.825 70.0366 499.584 71.4728C497.359 72.8933 494.865 73.6036 492.103 73.6036C490.146 73.6036 488.481 73.2801 487.108 72.6329C485.751 71.9858 484.638 71.1731 483.77 70.1945C482.902 69.2002 482.239 68.198 481.781 67.1878H481.332V73.0117H471.389ZM481.261 54.8298C481.261 56.9922 481.56 58.8782 482.16 60.4881C482.76 62.0978 483.627 63.3526 484.764 64.2523C485.901 65.1361 487.282 65.578 488.907 65.578C490.549 65.578 491.937 65.1282 493.074 64.2286C494.21 63.3132 495.071 62.0505 495.654 60.4407C496.254 58.8151 496.554 56.9448 496.554 54.8298C496.554 52.7307 496.262 50.8842 495.677 49.2901C495.094 47.6961 494.234 46.4492 493.097 45.5496C491.961 44.65 490.564 44.2002 488.907 44.2002C487.265 44.2002 485.876 44.6342 484.741 45.5023C483.62 46.3703 482.76 47.6014 482.16 49.1954C481.56 50.7895 481.261 52.6676 481.261 54.8298Z" fill="white"/>
<path d="M471.389 73.0117V24.5269H481.473V42.7561H481.781C482.223 41.7775 482.862 40.7832 483.699 39.7731C484.551 38.7472 485.656 37.895 487.013 37.2163C488.386 36.5219 490.091 36.1746 492.126 36.1746C494.779 36.1746 497.224 36.8691 499.466 38.258C501.707 39.6311 503.499 41.7065 504.84 44.4843C506.182 47.2463 506.852 50.7106 506.852 54.8773C506.852 58.9334 506.197 62.3583 504.887 65.1518C503.593 67.9296 501.825 70.0366 499.584 71.4728C497.359 72.8933 494.865 73.6036 492.103 73.6036C490.146 73.6036 488.481 73.2801 487.108 72.6329C485.751 71.9858 484.638 71.1731 483.77 70.1945C482.902 69.2002 482.239 68.198 481.781 67.1878H481.332V73.0117H471.389ZM481.261 54.8298C481.261 56.9922 481.56 58.8782 482.16 60.4881C482.76 62.0978 483.627 63.3526 484.764 64.2523C485.901 65.1361 487.282 65.578 488.907 65.578C490.549 65.578 491.937 65.1282 493.074 64.2286C494.21 63.3132 495.071 62.0505 495.654 60.4407C496.254 58.8151 496.554 56.9448 496.554 54.8298C496.554 52.7307 496.262 50.8842 495.677 49.2901C495.094 47.6961 494.234 46.4492 493.097 45.5496C491.961 44.65 490.564 44.2002 488.907 44.2002C487.265 44.2002 485.876 44.6342 484.741 45.5023C483.62 46.3703 482.76 47.6014 482.16 49.1954C481.56 50.7895 481.261 52.6676 481.261 54.8298Z" fill="white"/>
<path d="M523.666 24.5269V73.0117H513.582V24.5269H523.666Z" fill="white"/>
<path d="M523.666 24.5269V73.0117H513.582V24.5269H523.666Z" fill="white"/>
<path d="M548.317 73.722C544.577 73.722 541.357 72.9645 538.658 71.4492C535.975 69.9183 533.907 67.7561 532.456 64.9626C531.004 62.1532 530.277 58.8309 530.277 54.9957C530.277 51.2551 531.004 47.9723 532.456 45.1472C533.907 42.322 535.952 40.1203 538.587 38.5421C541.238 36.9638 544.348 36.1747 547.915 36.1747C550.314 36.1747 552.547 36.5613 554.615 37.3347C556.698 38.0922 558.513 39.2366 560.059 40.7675C561.623 42.2983 562.837 44.2239 563.706 46.544C564.574 48.8482 565.007 51.5471 565.007 54.6406V57.4105H534.303V51.1605H555.514C555.514 49.7085 555.198 48.4221 554.567 47.3016C553.936 46.181 553.061 45.305 551.94 44.6737C550.835 44.0266 549.548 43.703 548.081 43.703C546.55 43.703 545.193 44.0581 544.008 44.7683C542.841 45.4628 541.925 46.4019 541.263 47.5857C540.6 48.7536 540.261 50.0557 540.245 51.4919V57.4341C540.245 59.2333 540.576 60.788 541.238 62.0979C541.917 63.4079 542.873 64.418 544.104 65.1282C545.334 65.8385 546.794 66.1936 548.483 66.1936C549.604 66.1936 550.63 66.0358 551.561 65.7201C552.492 65.4045 553.29 64.931 553.952 64.2997C554.615 63.6684 555.12 62.895 555.467 61.9796L564.795 62.5951C564.322 64.8362 563.351 66.7934 561.883 68.4664C560.431 70.1236 558.553 71.4177 556.248 72.3489C553.96 73.2643 551.316 73.722 548.317 73.722Z" fill="white"/>
<path d="M548.317 73.722C544.577 73.722 541.357 72.9645 538.658 71.4492C535.975 69.9183 533.907 67.7561 532.456 64.9626C531.004 62.1532 530.277 58.8309 530.277 54.9957C530.277 51.2551 531.004 47.9723 532.456 45.1472C533.907 42.322 535.952 40.1203 538.587 38.5421C541.238 36.9638 544.348 36.1747 547.915 36.1747C550.314 36.1747 552.547 36.5613 554.615 37.3347C556.698 38.0922 558.513 39.2366 560.059 40.7675C561.623 42.2983 562.837 44.2239 563.706 46.544C564.574 48.8482 565.007 51.5471 565.007 54.6406V57.4105H534.303V51.1605H555.514C555.514 49.7085 555.198 48.4221 554.567 47.3016C553.936 46.181 553.061 45.305 551.94 44.6737C550.835 44.0266 549.548 43.703 548.081 43.703C546.55 43.703 545.193 44.0581 544.008 44.7683C542.841 45.4628 541.925 46.4019 541.263 47.5857C540.6 48.7536 540.261 50.0557 540.245 51.4919V57.4341C540.245 59.2333 540.576 60.788 541.238 62.0979C541.917 63.4079 542.873 64.418 544.104 65.1282C545.334 65.8385 546.794 66.1936 548.483 66.1936C549.604 66.1936 550.63 66.0358 551.561 65.7201C552.492 65.4045 553.29 64.931 553.952 64.2997C554.615 63.6684 555.12 62.895 555.467 61.9796L564.795 62.5951C564.322 64.8362 563.351 66.7934 561.883 68.4664C560.431 70.1236 558.553 71.4177 556.248 72.3489C553.96 73.2643 551.316 73.722 548.317 73.722Z" fill="white"/>
<g opacity="0.7">
<path d="M46.3266 0.242171C45.0104 -0.36926 43.4201 0.219041 42.8094 1.53508C34.3892 19.429 30.9719 38.1622 34.87 58.8464C35.3127 59.8636 36.3923 60.5048 37.4323 60.3926C37.7623 60.3696 38.049 60.2966 38.3857 60.1802C39.696 59.5716 40.3269 57.9756 39.7177 56.6649C36.585 38.6112 40.1262 19.7379 47.6645 3.81036C48.2319 2.44428 47.6428 0.853601 46.3266 0.242171Z" fill="white"/>
<path d="M48.7429 17.9639C45.4332 29.4039 44.1131 41.2227 44.8394 53.2837C44.9185 54.7905 46.2011 55.8686 47.6645 55.7402C49.1711 55.6618 50.2485 54.3796 50.1193 52.9161C49.4393 41.5151 50.6758 30.2062 53.8452 19.4128C54.276 17.9899 53.4435 16.5222 52.0205 16.0907C50.6408 15.7092 49.1737 16.541 48.7429 17.9639Z" fill="white"/>
<path d="M68.8504 4.84706C67.4208 4.039 65.6008 4.58329 64.8828 6.06019C60.9559 14.1369 54.7099 29.0957 56.1458 52.6026L56.1891 52.6526C56.3242 55.3361 55.2529 57.8384 53.1086 59.6061C51.0077 61.4239 48.2841 62.1176 45.6546 61.5048C44.2248 61.1665 42.8011 62.0484 42.5069 63.5281C42.1694 64.9577 43.0519 66.3821 44.5316 66.677C45.8247 66.9584 47.1313 67.0531 48.4013 67.0045C51.3712 66.7977 54.2217 65.6441 56.6161 63.6599C60.0109 60.8102 61.8132 56.6254 61.5191 52.2417C61.5191 52.2417 61.4758 52.1916 61.5258 52.1483C60.2033 30.101 65.9795 16.2184 69.961 8.81346C70.7194 7.40296 70.2446 5.63507 68.8504 4.84706Z" fill="white"/>
<path d="M33.268 2.41716C31.8618 1.86826 30.274 2.56213 29.7201 3.96641C27.5488 8.62007 26.2623 13.342 25.5721 18.6842C25.3788 20.1806 26.4465 21.4719 27.9091 21.6089C29.4052 21.8029 30.6957 20.7355 30.832 19.2727C31.6872 14.4538 32.8315 11.5589 34.8489 5.82171C35.332 4.44801 34.6245 2.94663 33.268 2.41716Z" fill="white"/>
<path d="M10.726 76.7949C9.56698 77.6847 9.31314 79.3601 10.2035 80.5197C12.205 83.1754 14.4944 85.6554 17.0305 87.8176C17.5729 88.3077 18.3135 88.5248 19.0651 88.4614C19.7233 88.3942 20.344 88.0914 20.8337 87.5492C21.8132 86.4649 21.6931 84.7744 20.6083 83.7943C18.3901 81.879 16.3252 79.6421 14.5444 77.323C13.5606 76.1597 11.8851 75.905 10.726 76.7949Z" fill="white"/>
<path d="M84.0976 77.3945C82.9337 76.4975 81.2483 76.6731 80.352 77.8365C68.6076 92.6804 46.6317 97.9095 29.2319 89.8829C27.879 89.2653 26.3313 89.8629 25.7144 91.2154C25.0976 92.568 25.6959 94.116 27.0487 94.7336C46.4808 103.604 71.2745 97.9135 84.5887 81.0939C85.4379 79.9769 85.2615 78.2914 84.0976 77.3945Z" fill="white"/>
<path d="M5.49371 26.5464C4.29542 26.4276 3.16312 27.133 2.80083 28.2814C-0.946912 40.1611 -1.14463 56.0891 3.49594 69.2197C3.91324 70.3156 4.9099 70.9713 5.99497 70.978C6.32576 70.976 6.61651 70.9213 6.86722 70.814C8.25354 70.3425 8.98447 68.7897 8.51236 67.403C4.11877 55.1915 5.16833 41.9134 7.82492 29.7948C8.16745 28.2323 7.0855 26.7043 5.49371 26.5464Z" fill="white"/>
<path d="M90.5688 26.5464C91.7671 26.4276 92.8994 27.133 93.2617 28.2814C97.0094 40.1611 97.2072 56.0891 92.5666 69.2197C92.1493 70.3156 91.1526 70.9713 90.0676 70.978C89.7368 70.976 89.446 70.9213 89.1953 70.814C87.809 70.3425 87.0781 68.7897 87.5502 67.403C91.9438 55.1915 90.8942 41.9134 88.2376 29.7948C87.8951 28.2323 88.977 26.7043 90.5688 26.5464Z" fill="white"/>
<path d="M78.9863 10.4611C77.6862 9.79402 76.0632 10.2812 75.396 11.5821C74.5291 12.7912 73.3033 15.71 73.0149 17.4336C72.804 18.1335 72.9245 18.8957 73.3034 19.548C73.6456 20.1142 74.1848 20.5457 74.8844 20.7564C76.2835 21.178 77.7601 20.3463 78.182 18.9465C78.5706 17.657 79.2441 15.4855 80.1422 14.1384C81.0404 12.7913 80.2864 11.1281 78.9863 10.4611Z" fill="white"/>
<path d="M18.6861 9.27563C17.301 8.80998 15.7689 9.53384 15.3031 10.9196C14.6263 12.2446 13.8496 16.2116 13.8215 17.9589C13.7173 18.6824 13.9502 19.4182 14.4221 20.0066C14.845 20.5154 15.4425 20.8617 16.1657 20.9658C17.612 21.1739 18.948 20.1312 19.1564 18.6842C19.3483 17.3512 19.9131 14.3352 20.3776 12.7394C20.8421 11.1436 20.0711 9.74127 18.6861 9.27563Z" fill="white"/>
<path d="M58.2909 1.64757C56.9908 0.980534 55.3678 1.46776 54.7006 2.76858C53.8338 3.97775 52.6079 6.89652 52.3195 8.62007C52.1086 9.31997 52.2291 10.0822 52.6079 10.7345C52.9502 11.3007 53.4894 11.7322 54.189 11.943C55.5881 12.3645 57.0647 11.5328 57.4866 10.133C57.8752 8.8435 58.5487 6.672 59.4469 5.32491C60.345 3.97782 59.591 2.3146 58.2909 1.64757Z" fill="white"/>
<path d="M89.3475 19.3023C89.3475 20.7903 88.1413 21.9966 86.6533 21.9966C85.1653 21.9966 83.959 20.7903 83.959 19.3023C83.959 17.8143 85.1653 16.6081 86.6533 16.6081C88.1413 16.6081 89.3475 17.8143 89.3475 19.3023Z" fill="white"/>
</g>
<path d="M12.2296 52.5504C12.2296 60.4494 15.2966 66.158 19.7614 69.9429C27.5301 76.5286 39.4611 77.5091 48.5708 73.2539C48.1832 73.2758 47.7928 73.2869 47.3998 73.2869C36.0355 73.2869 26.823 64.0029 26.823 52.5504L26.8231 27.3791C26.8231 25.7672 25.5163 24.4604 23.9044 24.4604C17.4566 24.4604 12.2296 29.6874 12.2296 36.1352V52.5504Z" fill="white"/>
<path d="M19.1998 73.7325C25.6124 82.389 35.8571 87.9937 47.4008 87.9937C66.8248 87.9937 82.571 72.1252 82.571 52.5504V27.3791C82.571 25.7672 81.2643 24.4604 79.6523 24.4604C73.2046 24.4604 67.9776 29.6874 67.9776 36.1352V52.5504C67.9776 76.4571 36.9589 86.5058 19.1998 73.7325Z" fill="white"/>
</svg>
